<svg width="80" height="80" viewBox="0 0 80 80" fill="none" xmlns="http://www.w3.org/2000/svg">
    <g clip-path="url(#clip0)">
        <path d="M14.2648 40.8232C14.0366 40.5949 13.8959 40.2856 13.8829 39.9508L12.901 14.2439C12.8879 13.8833 13.0245 13.5341 13.2794 13.2792C13.5342 13.0244 13.8834 12.8877 14.2444 12.9013L39.8893 13.8808C40.226 13.8782 40.5642 14.0056 40.8214 14.2629L78.4186 51.86C78.9271 52.3685 78.9287 53.1905 78.4222 53.697L53.7164 78.4028C53.2099 78.9093 52.3878 78.9077 51.8794 78.3992L14.4718 40.9917C14.3969 40.9424 14.3274 40.8858 14.2648 40.8232ZM16.4585 39.3114L52.793 75.6459L75.6653 52.7736L39.3515 16.4598L15.5511 15.551L16.4585 39.3114ZM39.9038 15.1814L39.9043 15.1819L39.9038 15.1814Z" fill="#182851"/>
        <path d="M20.5087 28.9866C18.1491 26.6269 18.1416 22.7949 20.4921 20.4444C22.8426 18.0939 26.6746 18.1014 29.0343 20.4611C31.394 22.8207 31.4014 26.6528 29.0509 29.0032C26.7004 31.3537 22.8684 31.3463 20.5087 28.9866ZM27.2008 22.2945C25.8563 20.9499 23.672 20.9457 22.3327 22.285C20.9934 23.6244 20.9976 25.8086 22.3422 27.1532C23.6868 28.4977 25.871 28.502 27.2103 27.1626C28.5497 25.8233 28.5454 23.6391 27.2008 22.2945Z" fill="#182851"/>
        <path d="M26.9654 35.6193L29.3585 33.2262C29.3788 33.9744 29.5234 34.6654 29.7919 35.2978C30.0605 35.9303 30.4248 36.4761 30.8845 36.9358C31.1541 37.2055 31.4168 37.4131 31.6724 37.5596C31.9285 37.7057 32.1725 37.7976 32.4045 37.8352C32.6365 37.8729 32.8514 37.8586 33.0502 37.7924C33.2484 37.7267 33.425 37.6163 33.5795 37.4619C33.789 37.2524 33.9231 37.0125 33.9813 36.7416C34.0401 36.4712 34.0473 36.1741 34.0035 35.8516C33.9592 35.5287 33.8768 35.1767 33.7543 34.7948C33.6324 34.4134 33.4924 34.0095 33.3354 33.583C32.942 32.4919 32.8147 31.5121 32.954 30.6439C33.0933 29.7757 33.5194 28.9853 34.2321 28.2725C34.7904 27.7142 35.3697 27.3337 35.97 27.131C36.5699 26.9287 37.1709 26.8688 37.7732 26.9522C38.3745 27.0355 38.9623 27.241 39.5352 27.5701C40.1076 27.8986 40.6466 28.3148 41.15 28.8183C41.6447 29.3129 42.0502 29.7854 42.3648 30.2347C42.6798 30.6844 42.9282 31.14 43.1119 31.6024L40.8755 33.8388C40.841 33.5549 40.7771 33.2718 40.6842 32.9892C40.5914 32.7066 40.4765 32.435 40.34 32.1738C40.2036 31.9127 40.052 31.6686 39.8853 31.4423C39.7186 31.216 39.5469 31.014 39.3702 30.8374C39.1273 30.5944 38.8803 30.3996 38.6292 30.2531C38.3782 30.1066 38.1364 30.0124 37.9049 29.9697C37.6729 29.9275 37.4538 29.9349 37.2468 29.9919C37.0398 30.0489 36.8536 30.1596 36.689 30.3242C36.5093 30.5039 36.3908 30.7062 36.3329 30.9325C36.2745 31.1583 36.2594 31.4127 36.2871 31.6943C36.3147 31.9759 36.3778 32.2883 36.4763 32.6315C36.5748 32.9748 36.699 33.3502 36.8477 33.7584C37.0481 34.3181 37.1989 34.8502 37.2995 35.3542C37.4006 35.8587 37.4319 36.3465 37.3942 36.8176C37.3561 37.2883 37.2321 37.7445 37.0198 38.1859C36.8085 38.6273 36.4856 39.0653 36.052 39.4989C35.4538 40.097 34.8507 40.4986 34.2435 40.7046C33.6358 40.9101 33.0339 40.9663 32.4376 40.8733C31.8413 40.7803 31.2594 40.5605 30.6925 40.2127C30.1255 39.8648 29.5878 39.4372 29.0798 38.9291C28.5585 38.4078 28.1124 37.8618 27.7411 37.2916C27.3685 36.7209 27.1107 36.1633 26.9654 35.6193Z" fill="#182851"/>
        <path d="M42.9583 52.4354L40.6253 50.1024L42.3351 47.0407L38.9548 43.6604L35.8995 45.3767L33.5794 43.0566L47.7641 35.7917L50.3027 38.3303L42.9583 52.4354ZM43.6996 44.6952L46.284 40.0695C46.478 39.7254 46.7464 39.3503 47.0896 38.9454L47.0367 38.8925C46.7006 39.1844 46.3337 39.4409 45.9364 39.6615L41.2677 42.2623L43.7 44.6947L43.6996 44.6952Z" fill="#182851"/>
        <path d="M49.8052 59.2823L44.1449 53.622L54.8696 42.8972L57.0107 45.0383L48.2454 53.8036L51.7651 57.3233L49.8056 59.2828L49.8052 59.2823Z" fill="#182851"/>
        <path d="M56.7849 66.262L51.0846 60.5617L61.8093 49.8369L67.2907 55.3182L65.3238 57.2851L61.9831 53.9444L59.5973 56.3302L62.7061 59.4389L60.7466 61.3984L57.6378 58.2897L55.1847 60.7428L58.744 64.3021L56.7845 66.2616L56.7849 66.262Z" fill="#182851"/>
    </g>
    <defs>
        <clipPath id="clip0">
            <rect x="26.5586" width="74.6433" height="37.5594" transform="rotate(45 26.5586 0)" fill="white"/>
        </clipPath>
    </defs>
</svg>
