<svg width="43" height="43" viewBox="0 0 43 43" fill="none" xmlns="http://www.w3.org/2000/svg">
<path d="M26.361 11.9071C28.0096 13.5147 29.0416 15.626 29.2839 17.8871C29.5262 20.1483 28.9642 22.422 27.692 24.3272C27.9139 24.5075 28.0987 24.7057 28.3576 24.886C28.7273 25.1744 29.2264 25.535 29.855 25.9496C30.4836 26.3642 30.8903 26.6526 31.0752 26.7968C31.6881 27.2245 32.2688 27.6943 32.8129 28.2028C33.3865 28.7557 33.9064 29.3592 34.3659 30.0055C34.7983 30.5898 35.1641 31.2184 35.4566 31.8802C35.7136 32.4465 35.8277 33.0647 35.7894 33.6828C35.7604 34.233 35.5232 34.7532 35.1236 35.1428C34.7241 35.5323 34.1906 35.7636 33.6264 35.7919C32.997 35.8224 32.3692 35.705 31.7962 35.4494C31.1119 35.1752 30.4659 34.8179 29.8735 34.3858C29.2107 33.9378 28.5918 33.4309 28.0248 32.8716C27.5087 32.3476 27.033 31.7873 26.6013 31.1952C26.4164 30.9609 26.1391 30.5643 25.7324 30.0055C25.3257 29.4466 24.9929 28.978 24.6971 28.5994C24.444 28.284 24.1724 27.9831 23.8837 27.6981C22.218 28.5484 20.3431 28.9316 18.4674 28.8054C16.5918 28.6791 14.7887 28.0481 13.2587 26.9827C11.7286 25.9173 10.5315 24.459 9.80037 22.7701C9.0692 21.0811 8.83262 19.2275 9.11692 17.4153C9.40121 15.6031 10.1952 13.9033 11.4108 12.5046C12.6263 11.106 14.2158 10.0634 16.0025 9.49271C17.7892 8.92198 19.7032 8.84548 21.5319 9.27171C23.3605 9.69793 25.0321 10.6102 26.361 11.9071ZM23.7543 23.3718C24.6591 22.4894 25.2753 21.3652 25.5249 20.1414C25.7745 18.9175 25.6464 17.649 25.1566 16.4962C24.6668 15.3434 23.8375 14.3581 22.7735 13.6648C21.7094 12.9716 20.4584 12.6016 19.1787 12.6016C17.899 12.6016 16.648 12.9716 15.584 13.6648C14.5199 14.3581 13.6906 15.3434 13.2009 16.4962C12.7111 17.649 12.5829 18.9175 12.8325 20.1414C13.0821 21.3652 13.6983 22.4894 14.6032 23.3718C15.8197 24.5494 17.4645 25.2103 19.1787 25.2103C20.893 25.2103 22.5377 24.5494 23.7543 23.3718Z" fill="#575757"/>
</svg>
