<svg width="79" height="80" viewBox="0 0 79 80" fill="none" xmlns="http://www.w3.org/2000/svg">
<path d="M17.6169 20.6625L19.7499 29.7475L17.6169 38.793L25.5564 43.691L30.4149 51.6305L39.4999 49.4975L48.5849 51.6305L53.4434 43.691L61.3829 38.793L59.2499 29.7475L61.3829 20.6625L53.4829 15.7645L48.5849 7.82495L39.4999 9.99745L30.4544 7.86445L25.5169 15.7645L17.6169 20.6625ZM39.5394 45.7055C36.4144 45.7133 33.3574 44.7942 30.7548 43.0646C28.1521 41.335 26.1208 38.8724 24.9178 35.9884C23.7147 33.1043 23.3939 29.9282 23.9959 26.8618C24.5978 23.7954 26.0956 20.9764 28.2997 18.7612C30.5039 16.546 33.3154 15.0342 36.3787 14.4169C39.4421 13.7995 42.6197 14.1045 45.5098 15.2931C48.3998 16.4818 50.8725 18.5007 52.6151 21.0946C54.3577 23.6886 55.292 26.741 55.2999 29.866C55.3051 31.9408 54.9015 33.9964 54.1123 35.9154C53.3231 37.8343 52.1636 39.579 50.7001 41.0498C49.2366 42.5207 47.4977 43.6888 45.5828 44.4876C43.6678 45.2865 41.6143 45.7003 39.5394 45.7055ZM39.4604 41.7555C37.1184 41.7476 34.8312 41.046 32.8877 39.7392C30.9441 38.4324 29.4314 36.5789 28.5406 34.4129C27.6498 32.247 27.4207 29.8656 27.8824 27.5695C28.3441 25.2734 29.4758 23.1657 31.1346 21.5124C32.7934 19.8591 34.9049 18.7344 37.2025 18.2803C39.5001 17.8263 41.8807 18.0633 44.0437 18.9613C46.2067 19.8594 48.0551 21.3782 49.3555 23.3261C50.6559 25.2739 51.3499 27.5634 51.3499 29.9055C51.3567 31.4669 51.0536 33.0141 50.458 34.4575C49.8624 35.9009 48.9863 37.2117 47.8803 38.3139C46.7744 39.4162 45.4607 40.288 44.0153 40.8787C42.57 41.4695 41.0217 41.7675 39.4604 41.7555ZM54.6284 46.1005L49.5724 54.9485L41.3564 53.092L51.3499 76.1205L56.8799 67.4305H66.7549L54.6284 46.1005ZM24.2134 46.377L29.1509 55.2645L37.5644 53.25L27.6499 76.1205L22.1199 67.4305H12.2449L24.2134 46.377Z" fill="#182851"/>
</svg>
