<svg width="736" height="114" viewBox="0 0 736 114" fill="none" xmlns="http://www.w3.org/2000/svg">
    <g clip-path="url(#clip0)">
        <path d="M260.878 26.53L262.488 26.2486L269.748 37.7747L268.527 37.988L266.777 35.2244L259.886 36.4284L259.177 39.6216L257.956 39.8348L260.878 26.53ZM260.141 35.2864L266.15 34.2366L261.889 27.415L261.837 27.4241L260.141 35.2864Z" fill="white"/>
        <path d="M279.716 36.1773L278.615 36.3541L277.976 32.3771L272.05 33.3296L272.689 37.3067L271.588 37.4836L270.19 28.7842L271.291 28.6074L271.884 32.2985L277.811 31.346L277.217 27.6548L278.318 27.4779L279.716 36.1773Z" fill="white"/>
        <path d="M281.909 33.3346C281.778 32.4893 282.059 31.7842 282.754 31.2194C283.444 30.6613 284.368 30.2922 285.526 30.1119C286.134 30.0172 286.727 30.0019 287.307 30.0659C287.881 30.1366 288.295 30.2233 288.548 30.3262L288.958 30.5026L288.709 28.9046C288.598 28.1925 288.244 27.6902 287.647 27.3977C287.045 27.1119 286.342 27.0317 285.537 27.157C284.75 27.2796 284.092 27.548 283.563 27.9624C283.034 28.371 282.807 28.8155 282.882 29.2961L281.779 29.4678C281.696 28.7454 281.954 28.0589 282.552 27.4083C283.155 26.751 284.085 26.3245 285.342 26.1289C286.476 25.9522 287.462 26.0774 288.3 26.5045C289.144 26.9364 289.648 27.6792 289.812 28.7329L290.385 32.4151C290.45 32.832 290.56 33.1173 290.714 33.2712C290.874 33.4183 291.107 33.468 291.414 33.4203C291.61 33.3896 291.766 33.3417 291.88 33.2764L291.926 33.2249L292.076 34.1888C291.926 34.2951 291.695 34.3726 291.383 34.4213C290.833 34.5069 290.42 34.4438 290.143 34.2318C289.863 34.0323 289.689 33.8666 289.621 33.7349L289.588 33.6334L289.536 33.6415C289.506 33.7173 289.352 33.8688 289.073 34.0961C288.879 34.2626 288.677 34.4097 288.465 34.5375C287.943 34.8797 287.254 35.1175 286.397 35.2509C285.199 35.4375 284.185 35.3819 283.356 35.084C282.527 34.7862 282.045 34.203 281.909 33.3346ZM283.047 33.1574C283.206 34.1764 284.315 34.5254 286.377 34.2045C286.985 34.1099 287.535 33.9322 288.028 33.6716C288.515 33.4119 288.834 33.2111 288.984 33.0692C289.122 32.929 289.229 32.8146 289.304 32.7258L289.113 31.5013C289.065 31.4555 288.939 31.3891 288.736 31.3022C288.508 31.213 288.134 31.1349 287.614 31.0676C287.069 30.9982 286.496 31.0104 285.894 31.1042C284.678 31.2935 283.834 31.6414 283.361 32.1478C283.092 32.4388 282.987 32.7753 283.047 33.1574Z" fill="white"/>
        <path d="M294.717 32.6883C293.724 31.981 293.126 30.957 292.925 29.6165C292.723 28.276 292.992 27.1216 293.733 26.1533C294.462 25.1867 295.505 24.6012 296.863 24.3968C297.452 24.3081 298.026 24.3133 298.585 24.4124C299.143 24.5057 299.619 24.6703 300.015 24.9061C300.393 25.1388 300.728 25.4015 301.02 25.6943C301.557 26.2341 301.863 26.7582 301.94 27.2666L300.787 27.4402C300.768 27.3131 300.676 27.1348 300.511 26.9055C300.353 26.6753 300.136 26.4332 299.861 26.1791C299.56 25.9053 299.162 25.6963 298.668 25.5521C298.15 25.4056 297.601 25.3759 297.024 25.4629C295.984 25.6194 295.192 26.0754 294.65 26.8306C294.109 27.5917 293.912 28.4633 294.06 29.4456C294.208 30.4279 294.653 31.203 295.394 31.7709C296.124 32.3406 297.014 32.5463 298.066 32.388C298.644 32.301 299.159 32.1112 299.611 31.8185C300.047 31.5343 300.365 31.2145 300.566 30.8593C300.954 30.1804 301.126 29.6908 301.081 29.3903L302.233 29.2168C302.3 29.5435 302.232 29.9762 302.03 30.5149C301.833 31.0527 301.519 31.5579 301.088 32.0305C300.779 32.3725 300.372 32.6731 299.868 32.9322C299.362 33.1856 298.815 33.3566 298.225 33.4454C296.873 33.6489 295.704 33.3966 294.717 32.6883Z" fill="white"/>
        <path d="M302.544 23.7451L310.85 22.5999L310.993 23.636L307.388 24.1329L308.45 31.8384L307.345 31.9908L306.282 24.2854L302.686 24.7812L302.544 23.7451Z" fill="white"/>
        <path d="M312.542 28.8233C312.432 27.9707 312.733 27.2697 313.446 26.7204C314.154 26.1778 315.092 25.831 316.26 25.6801C316.873 25.6009 317.47 25.601 318.05 25.6804C318.625 25.7664 319.039 25.8644 319.29 25.9744L319.698 26.1623L319.489 24.5504C319.397 23.8321 319.054 23.3182 318.462 23.0088C317.865 22.7059 317.16 22.6069 316.348 22.7118C315.554 22.8144 314.886 23.0669 314.344 23.4694C313.802 23.866 313.562 24.3067 313.625 24.7915L312.512 24.9352C312.448 24.2072 312.725 23.5243 313.343 22.8863C313.966 22.2417 314.911 21.8375 316.179 21.6738C317.323 21.526 318.311 21.6775 319.141 22.1284C319.978 22.5844 320.465 23.3438 320.602 24.4067L321.082 28.121C321.136 28.5415 321.239 28.831 321.39 28.9896C321.546 29.1416 321.779 29.1977 322.088 29.1577C322.287 29.132 322.445 29.0879 322.561 29.0254L322.608 28.9748L322.734 29.9471C322.581 30.05 322.347 30.1218 322.031 30.1626C321.476 30.2342 321.063 30.16 320.791 29.9398C320.515 29.732 320.345 29.5611 320.28 29.427L320.249 29.3241L320.196 29.3309C320.164 29.4062 320.005 29.5544 319.719 29.7755C319.52 29.9377 319.313 30.0802 319.097 30.2031C318.564 30.5333 317.865 30.7541 317.001 30.8658C315.792 31.022 314.775 30.9396 313.95 30.6187C313.125 30.2978 312.655 29.6993 312.542 28.8233ZM313.69 28.6751C313.823 29.7029 314.929 30.0826 317.008 29.814C317.621 29.7348 318.179 29.5707 318.681 29.3218C319.177 29.0736 319.502 28.8802 319.657 28.7415C319.799 28.6043 319.91 28.4921 319.987 28.4049L319.828 27.1697C319.78 27.1224 319.655 27.0524 319.453 26.9598C319.227 26.8643 318.854 26.776 318.333 26.6949C317.787 26.6109 317.211 26.6082 316.604 26.6866C315.377 26.8451 314.52 27.1725 314.032 27.669C313.754 27.9543 313.64 28.2896 313.69 28.6751Z" fill="white"/>
        <path d="M325.377 28.5302C324.404 27.7908 323.837 26.7462 323.676 25.3964C323.514 24.0466 323.82 22.8978 324.592 21.95C325.352 21.0035 326.416 20.4487 327.783 20.2854C328.376 20.2145 328.952 20.2373 329.508 20.3538C330.064 20.4644 330.537 20.644 330.927 20.8925C331.298 21.1373 331.626 21.4109 331.91 21.7133C332.431 22.2707 332.722 22.8054 332.783 23.3174L331.623 23.456C331.607 23.328 331.521 23.1466 331.363 22.9117C331.211 22.6761 331.001 22.4267 330.734 22.1636C330.44 21.88 330.048 21.6584 329.557 21.4987C329.041 21.336 328.493 21.2894 327.911 21.3588C326.864 21.4839 326.057 21.9166 325.49 22.657C324.925 23.4032 324.701 24.2708 324.819 25.2599C324.937 26.2489 325.359 27.0395 326.084 27.6314C326.799 28.2247 327.685 28.4582 328.744 28.3317C329.326 28.2623 329.848 28.0878 330.31 27.8084C330.756 27.5368 331.084 27.2261 331.296 26.8762C331.706 26.2077 331.893 25.7221 331.857 25.4196L333.018 25.281C333.075 25.6105 332.994 26.0422 332.774 26.5759C332.56 27.1089 332.23 27.6056 331.784 28.0661C331.463 28.3994 331.047 28.6882 330.533 28.9325C330.018 29.1709 329.464 29.3256 328.871 29.3964C327.51 29.559 326.345 29.2703 325.377 28.5302Z" fill="white"/>
        <path d="M344.182 27.4855L343.09 27.6047L342.262 20.0208L342.227 20.0246L337.559 28.2084L336.004 28.3782L335.046 19.6061L336.138 19.4869L336.967 27.0795L337.002 27.0756L341.669 18.8831L343.224 18.7134L344.182 27.4855Z" fill="white"/>
        <path d="M348.069 27.0921L346.836 27.2145L348.583 23.6406C348.385 23.6073 348.148 23.5278 347.871 23.4023C347.63 23.2966 347.42 23.1644 347.239 23.0056C347.033 22.8259 346.844 22.5798 346.671 22.2671C346.504 21.9481 346.402 21.5991 346.364 21.2201C346.276 20.328 346.511 19.6099 347.069 19.0657C347.627 18.5157 348.46 18.1857 349.567 18.0757L353.398 17.6954L354.27 26.4765L353.159 26.5867L352.842 23.3944L349.746 23.7018L348.069 27.0921ZM352.391 18.8465L349.671 19.1165C348.12 19.2705 347.402 19.9335 347.519 21.1055C347.635 22.2774 348.446 22.7887 349.95 22.6394L352.74 22.3624L352.391 18.8465Z" fill="white"/>
        <path d="M372.12 24.9132L370.938 25.0123L370.437 19.039L362.546 19.7003L363.047 25.6735L361.864 25.7726L360.812 13.2131L361.994 13.114L362.456 18.623L370.347 17.9618L369.885 12.4528L371.068 12.3537L372.12 24.9132Z" fill="white"/>
        <path d="M376.307 24.6L375.071 24.6891L376.914 21.1637C376.717 21.125 376.482 21.0392 376.208 20.9062C375.971 20.794 375.764 20.6562 375.588 20.4926C375.387 20.3074 375.204 20.0562 375.04 19.739C374.882 19.4156 374.789 19.0639 374.761 18.684C374.697 17.7899 374.951 17.0784 375.524 16.5495C376.097 16.0148 376.938 15.7075 378.048 15.6275L381.888 15.3509L382.522 24.1523L381.409 24.2325L381.178 21.0328L378.075 21.2563L376.307 24.6ZM380.85 16.4743L378.124 16.6707C376.569 16.7827 375.834 17.426 375.919 18.6007C376.003 19.7754 376.799 20.3084 378.307 20.1998L381.104 19.9984L380.85 16.4743Z" fill="white"/>
        <path d="M392.728 17.0143C392.757 17.488 392.667 17.8869 392.458 18.2109C392.255 18.5287 392.041 18.7298 391.817 18.814L391.482 18.9492L391.485 19.0018C391.632 18.9928 391.861 19.0403 392.172 19.1444C392.401 19.2301 392.601 19.3322 392.772 19.4508C392.969 19.5913 393.14 19.8008 393.287 20.0795C393.433 20.3581 393.517 20.6729 393.539 21.0238C393.638 22.6379 392.518 23.5171 390.179 23.6614L385.565 23.946L385.021 15.1386L389.408 14.868C390.414 14.8059 391.207 14.9595 391.787 15.3288C392.367 15.6922 392.681 16.254 392.728 17.0143ZM386.614 22.8334L390.115 22.6175C391.711 22.519 392.48 21.9843 392.42 21.0135C392.36 20.0427 391.546 19.6057 389.979 19.7023L386.435 19.921L386.614 22.8334ZM391.619 17.1708C391.562 16.2467 390.846 15.8271 389.472 15.9119L386.2 16.1137L386.371 18.8858L389.801 18.6742C390.409 18.6367 390.87 18.488 391.182 18.228C391.501 17.9676 391.647 17.6152 391.619 17.1708Z" fill="white"/>
        <path d="M396.49 14.4499L396.628 17.1359C396.704 18.6222 397.658 19.3185 399.489 19.2247L401.973 19.0976L401.722 14.1822L402.837 14.1251L403.288 22.9378L402.173 22.9949L402.026 20.1334L399.542 20.2605C396.968 20.3923 395.624 19.3698 395.513 17.1929L395.376 14.507L396.49 14.4499Z" fill="white"/>
        <path d="M404.436 14.0442L405.639 13.9953L409.575 21.6551L409.628 21.6529L412.875 13.7008L414.061 13.6526L410.17 23.091C409.684 24.2661 409.215 25.1267 408.762 25.6729C408.298 26.2313 407.747 26.5234 407.109 26.5494C406.728 26.5649 406.419 26.5306 406.181 26.4464L406.057 26.4163L406.014 25.3713C406.265 25.4783 406.616 25.5227 407.066 25.5044C407.429 25.4896 407.759 25.3003 408.055 24.9364C408.344 24.5552 408.654 23.9561 408.984 23.1393L409.048 22.9784L404.436 14.0442Z" fill="white"/>
        <path d="M424.029 22.1818L422.536 22.2272L416.929 17.9833L417.063 22.3934L415.947 22.4273L415.679 13.6072L416.795 13.5733L416.927 17.9131L421.908 13.418L423.401 13.3726L418.421 17.8853L424.029 22.1818Z" fill="white"/>
        <path d="M429.133 16.7981L442.852 16.6353L442.865 17.6811L429.146 17.8439L429.133 16.7981Z" fill="white"/>
        <path d="M450.233 18.5125L451.12 13.0949L457.444 13.1657L457.345 21.9964L456.228 21.9839L456.315 14.1998L452.041 14.152L451.323 18.5247C451.115 19.8067 450.829 20.7213 450.466 21.2685C450.102 21.8157 449.571 22.0854 448.873 22.0776C448.662 22.0752 448.469 22.0437 448.294 21.9831L448.206 21.947L448.218 20.9003C448.352 20.9546 448.545 20.989 448.797 21.0035C449.219 21.0083 449.53 20.8006 449.728 20.3806C449.926 19.9371 450.095 19.3144 450.233 18.5125Z" fill="white"/>
        <path d="M459.989 19.5924C460.008 18.7371 460.409 18.0923 461.192 17.658C461.969 17.2294 462.943 17.0278 464.115 17.0531C464.73 17.0664 465.317 17.1553 465.876 17.3198C466.429 17.49 466.821 17.648 467.052 17.7936L467.425 18.0391L467.46 16.4223C467.476 15.7017 467.215 15.1452 466.679 14.7526C466.136 14.3658 465.458 14.1635 464.643 14.1459C463.847 14.1287 463.152 14.2777 462.559 14.5931C461.966 14.9026 461.665 15.3005 461.654 15.7867L460.538 15.7625C460.583 15.0368 460.957 14.4061 461.66 13.8704C462.37 13.3289 463.36 13.072 464.631 13.0995C465.779 13.1244 466.728 13.4204 467.478 13.9875C468.233 14.5606 468.599 15.3803 468.576 16.4464L468.495 20.1721C468.486 20.5939 468.544 20.894 468.669 21.0726C468.8 21.2454 469.021 21.3351 469.332 21.3418C469.531 21.3462 469.692 21.3262 469.816 21.282L469.87 21.2392L469.849 22.2146C469.683 22.293 469.442 22.3288 469.126 22.322C468.569 22.3099 468.174 22.1754 467.939 21.9183C467.698 21.6728 467.556 21.4792 467.512 21.3376L467.497 21.2318L467.444 21.2306C467.401 21.3001 467.223 21.4222 466.909 21.5971C466.689 21.7271 466.464 21.8365 466.233 21.9253C465.659 22.1708 464.939 22.2841 464.072 22.2653C462.859 22.2391 461.871 22.0067 461.107 21.5682C460.343 21.1297 459.97 20.4711 459.989 19.5924ZM461.14 19.6173C461.118 20.6483 462.15 21.1864 464.235 21.2315C464.85 21.2448 465.423 21.1664 465.955 20.9962C466.48 20.8259 466.829 20.684 467.001 20.5705C467.162 20.4568 467.287 20.3628 467.376 20.2885L467.403 19.0496C467.363 18.996 467.251 18.9085 467.066 18.7873C466.858 18.6597 466.503 18.5173 466.003 18.3599C465.479 18.1962 464.912 18.1077 464.303 18.0946C463.073 18.0679 462.181 18.2625 461.627 18.6784C461.311 18.9177 461.149 19.2307 461.14 19.6173Z" fill="white"/>
        <path d="M477.973 11.9899C477.54 12.2911 476.958 12.4287 476.226 12.4026C475.494 12.3765 474.926 12.2009 474.521 11.8757C474.11 11.5504 473.916 11.092 473.937 10.5005L473.939 10.4478L474.949 10.4838L474.947 10.519C474.937 10.8 475.046 11.0326 475.274 11.2166C475.503 11.3947 475.83 11.4914 476.258 11.5067C476.685 11.5219 477.019 11.4488 477.259 11.2873C477.506 11.1202 477.634 10.8961 477.644 10.615L477.645 10.5799L478.647 10.6156L478.645 10.6683C478.624 11.2538 478.4 11.6944 477.973 11.9899ZM479.936 22.5694L478.838 22.5303L479.109 14.9062L479.074 14.905L473.278 22.3322L471.714 22.2766L472.028 13.4579L473.126 13.497L472.855 21.1299L472.89 21.1311L478.686 13.6951L480.25 13.7508L479.936 22.5694Z" fill="white"/>
        <path d="M487.683 23.1188C486.175 23.0059 484.971 22.5155 484.071 21.6478C483.172 20.78 482.757 19.6556 482.828 18.2746C482.899 16.8995 483.427 15.8237 484.412 15.0471C485.396 14.2765 486.644 13.9125 488.155 13.9552L488.341 10.3564L489.456 10.4139L489.27 14.0126C490.778 14.1255 491.982 14.6159 492.882 15.4836C493.776 16.357 494.187 17.4812 494.116 18.8563C494.045 20.2432 493.52 21.3191 492.542 22.0843C491.557 22.8549 490.309 23.2189 488.798 23.1762L488.621 26.5994L487.507 26.542L487.683 23.1188ZM487.738 22.0479L488.1 15.0348C486.863 15.0121 485.88 15.3047 485.15 15.9125C484.421 16.5203 484.03 17.3274 483.978 18.3339C483.926 19.3404 484.232 20.1834 484.895 20.8629C485.564 21.5486 486.512 21.9437 487.738 22.0479ZM491.803 21.2189C492.526 20.6167 492.914 19.8094 492.966 18.7971C493.018 17.7847 492.716 16.9419 492.058 16.2685C491.401 15.5892 490.453 15.1971 489.214 15.0922L488.853 22.1054C490.084 22.1278 491.067 21.8323 491.803 21.2189Z" fill="white"/>
        <path d="M496.054 19.1678L500.133 17.7642L500.058 18.9483L495.978 20.3519L496.054 19.1678Z" fill="white"/>
        <path d="M510.036 24.3888L508.546 24.2783L503.412 19.4734L503.085 23.8734L501.972 23.7909L502.625 14.9908L503.738 15.0734L503.417 19.4033L508.839 15.4516L510.329 15.562L504.905 19.5313L510.036 24.3888Z" fill="white"/>
        <path d="M512.251 23.4726C511.439 22.5419 511.093 21.4025 511.212 20.0542C511.331 18.706 511.872 17.6451 512.835 16.8715C513.791 16.1032 514.952 15.7796 516.318 15.9005C517.684 16.0214 518.77 16.5441 519.576 17.4684C520.383 18.3927 520.726 19.5319 520.606 20.886C520.486 22.2401 519.948 23.3013 518.992 24.0695C518.036 24.8378 516.875 25.1615 515.509 25.0405C514.143 24.9196 513.057 24.397 512.251 23.4726ZM515.603 23.9724C516.66 24.066 517.545 23.8061 518.258 23.1928C518.971 22.5794 519.371 21.7767 519.459 20.7845C519.547 19.7923 519.294 18.9316 518.7 18.2025C518.105 17.4793 517.279 17.0709 516.223 16.9773C515.172 16.8843 514.288 17.1413 513.569 17.7483C512.85 18.3669 512.446 19.1694 512.359 20.1558C512.272 21.1422 512.528 22.0031 513.127 22.7385C513.722 23.4676 514.547 23.8789 515.603 23.9724Z" fill="white"/>
        <path d="M521.917 16.5856L523.115 16.7091L525.915 24.8529L525.967 24.8584L530.319 17.4523L531.499 17.5741L526.298 26.3593C525.649 27.4527 525.062 28.2374 524.536 28.7133C523.997 29.1996 523.409 29.41 522.774 29.3444C522.395 29.3053 522.094 29.2271 521.871 29.1098L521.752 29.0622L521.859 28.0219C522.092 28.1637 522.433 28.2577 522.881 28.304C523.243 28.3413 523.596 28.201 523.941 27.8832C524.282 27.5473 524.674 26.9987 525.118 26.2375L525.204 26.0873L521.917 16.5856Z" fill="white"/>
        <path d="M534.107 17.8702L533.781 20.5433C533.6 22.0225 534.421 22.8735 536.244 23.0962L538.716 23.3982L539.314 18.5063L540.423 18.6419L539.351 27.4123L538.242 27.2768L538.59 24.429L536.118 24.127C533.555 23.8139 532.407 22.5741 532.671 20.4077L532.998 17.7347L534.107 17.8702Z" fill="white"/>
        <path d="M542.094 30.091L542.315 28.3649C542.344 28.1383 542.252 27.961 542.038 27.8331C541.825 27.6994 541.739 27.4669 541.782 27.1357C541.809 26.9206 541.904 26.7556 542.067 26.6406C542.23 26.5197 542.422 26.4735 542.643 26.5018C543.143 26.5659 543.363 26.8955 543.305 27.4905C543.205 28.2635 543.029 28.8996 542.776 29.3988C542.531 29.8871 542.303 30.1178 542.094 30.091Z" fill="white"/>
        <path d="M558.054 26.0477L554.167 25.4779L554.319 24.4431L558.206 25.0129C558.285 24.4737 558.108 23.8259 557.674 23.0694C557.457 22.6883 557.127 22.3585 556.682 22.0801C556.238 21.7959 555.732 21.6122 555.164 21.5289C554.584 21.4439 554.034 21.4759 553.515 21.6248C553.02 21.7713 552.622 21.9824 552.321 22.258C551.75 22.7962 551.443 23.219 551.398 23.5262L550.241 23.3567C550.271 23.0295 550.459 22.6365 550.805 22.1779C551.157 21.7143 551.609 21.3158 552.161 20.9822C552.552 20.7433 553.026 20.576 553.585 20.4803C554.145 20.3787 554.723 20.3717 555.32 20.4593C556.677 20.6582 557.726 21.2412 558.466 22.2085C559.212 23.1824 559.486 24.3389 559.29 25.6781C559.094 27.0173 558.502 28.0468 557.514 28.7666C556.527 29.4806 555.352 29.7377 553.99 29.538C553.392 29.4505 552.84 29.2807 552.332 29.0285C551.825 28.7706 551.419 28.4712 551.113 28.1304C550.818 27.8028 550.573 27.4531 550.379 27.0811C550.022 26.4069 549.88 25.8177 549.954 25.3133L551.111 25.4828C551.067 25.7843 551.24 26.2747 551.632 26.9539C551.835 27.3093 552.155 27.6287 552.593 27.9121C553.048 28.2038 553.565 28.3921 554.145 28.4771C554.725 28.5621 555.271 28.5297 555.785 28.3799C556.299 28.2244 556.719 27.9898 557.043 27.6761C557.642 27.1007 557.98 26.5579 558.054 26.0477Z" fill="white"/>
        <path d="M569.283 31.7715L567.809 31.5301L563.118 26.2911L562.405 30.6452L561.304 30.4648L562.73 21.7566L563.831 21.937L563.13 26.2217L568.879 22.7636L570.354 23.0051L564.601 26.4805L569.283 31.7715Z" fill="white"/>
        <path d="M571.536 31.0638C570.822 30.0715 570.586 28.9065 570.828 27.5688C571.07 26.2311 571.699 25.2223 572.714 24.5424C573.719 23.8605 574.899 23.642 576.254 23.8868C576.842 23.993 577.385 24.1834 577.883 24.458C578.382 24.7268 578.782 25.0371 579.081 25.389C579.365 25.7319 579.598 26.0896 579.781 26.462C580.115 27.1477 580.237 27.7442 580.145 28.2516L578.995 28.0438C579.018 27.9169 578.988 27.7181 578.906 27.4472C578.83 27.1774 578.702 26.8775 578.524 26.5476C578.326 26.1904 578.016 25.8634 577.593 25.5667C577.149 25.2601 576.638 25.0548 576.061 24.9506C575.024 24.7631 574.125 24.9402 573.366 25.4819C572.607 26.0294 572.138 26.7932 571.961 27.7735C571.784 28.7537 571.956 29.6332 572.476 30.4119C572.985 31.1885 573.764 31.6716 574.813 31.8612C575.39 31.9654 575.94 31.9516 576.464 31.82C576.969 31.6911 577.375 31.4904 577.68 31.2181C578.268 30.6991 578.589 30.2897 578.643 29.9898L579.794 30.1976C579.751 30.5294 579.547 30.9183 579.181 31.3641C578.82 31.8111 578.359 32.1892 577.797 32.4985C577.393 32.7233 576.91 32.8771 576.347 32.96C575.785 33.0372 575.211 33.0226 574.622 32.9164C573.273 32.6726 572.244 32.0551 571.536 31.0638Z" fill="white"/>
        <path d="M589.575 35.5937L588.485 35.3794L589.978 27.7883L584.3 26.6712L582.807 34.2624L581.717 34.0481L583.412 25.4362L591.269 26.9818L589.575 35.5937Z" fill="white"/>
        <path d="M602.391 33.9017L602.192 34.5597L594.211 32.7961C594.153 33.0593 594.213 33.4628 594.393 34.0066C594.497 34.3236 594.641 34.6253 594.823 34.9117C595.019 35.2191 595.317 35.5038 595.715 35.7658C596.113 36.0278 596.564 36.2144 597.067 36.3257C597.433 36.4066 597.795 36.4414 598.151 36.4302C598.508 36.4189 598.81 36.3687 599.058 36.2794C599.539 36.1098 599.869 35.9365 600.046 35.7596L600.188 35.647L601.501 35.9371C601.447 36.0153 601.389 36.0895 601.325 36.1594C601.229 36.2701 601.041 36.4296 600.761 36.6377C600.46 36.8593 600.15 37.0398 599.831 37.1794C599.492 37.3266 599.057 37.4253 598.523 37.4755C597.982 37.5359 597.419 37.5016 596.836 37.3727C595.474 37.0718 594.453 36.4111 593.772 35.3906C593.087 34.3631 592.891 33.1886 593.183 31.8669C593.475 30.5453 594.148 29.5629 595.202 28.9197C596.25 28.281 597.443 28.1096 598.781 28.4054C600.12 28.7012 601.13 29.3594 601.81 30.3799C602.491 31.4004 602.685 32.5743 602.391 33.9017ZM594.402 31.7673L601.328 33.2976C601.482 32.5996 601.33 31.846 600.873 31.0369C600.416 30.2278 599.641 29.7025 598.548 29.461C597.455 29.2195 596.531 29.3694 595.775 29.9105C595.013 30.4561 594.555 31.075 594.402 31.7673Z" fill="white"/>
        <path d="M610.82 31.2C612.107 31.5131 613.079 32.19 613.736 33.2304C614.38 34.2738 614.544 35.4473 614.227 36.7511C613.908 38.0605 613.223 39.0276 612.173 39.6523C611.111 40.2742 609.936 40.4286 608.65 40.1154C607.153 39.7751 606.132 38.9658 605.586 37.6873L605.565 37.6277L605.496 37.6111L604.287 42.5812L603.202 42.3172L606.141 30.2421L607.226 30.5061L606.866 31.9834L606.935 32.0001L606.983 31.9486C608.076 31.0749 609.355 30.8254 610.82 31.2ZM608.818 39.0528C609.848 39.3036 610.762 39.1793 611.559 38.6798C612.356 38.1803 612.872 37.4466 613.108 36.4788C613.344 35.5109 613.222 34.622 612.744 33.8121C612.264 33.0079 611.509 32.4804 610.479 32.2296C609.465 31.9829 608.557 32.0965 607.755 32.5705C606.95 33.0502 606.426 33.791 606.182 34.793C605.938 35.795 606.063 36.6938 606.557 37.4894C607.04 38.2822 607.793 38.8034 608.818 39.0528Z" fill="white"/>
        <path d="M616.459 32.7739L624.568 34.9087L624.301 35.9201L620.783 34.9937L618.802 42.5157L617.723 42.2315L619.703 34.7095L616.193 33.7853L616.459 32.7739Z" fill="white"/>
        <g clip-path="url(#clip1)">
            <path d="M274.911 68.0782L273.811 68.2662L272.501 60.6002L266.766 61.5803L268.077 69.2463L266.976 69.4343L265.49 60.7375L273.425 59.3814L274.911 68.0782Z" fill="white"/>
            <path d="M278.669 66.2812C277.65 65.5832 277.03 64.5666 276.808 63.2314C276.586 61.8962 276.845 60.7337 277.583 59.7438C278.317 58.7607 279.36 58.1569 280.712 57.9322C282.065 57.7076 283.247 57.9419 284.259 58.635C285.271 59.3282 285.889 60.3453 286.111 61.6863C286.334 63.0273 286.079 64.1893 285.345 65.1724C284.611 66.1555 283.568 66.7594 282.216 66.984C280.863 67.2087 279.681 66.9744 278.669 66.2812ZM282.04 65.9263C283.086 65.7525 283.878 65.2795 284.415 64.5072C284.952 63.735 285.139 62.8576 284.976 61.8749C284.812 60.8923 284.352 60.1224 283.594 59.5652C282.837 59.0138 281.936 58.8249 280.89 58.9987C279.849 59.1715 279.057 59.6416 278.513 60.409C277.972 61.188 277.782 62.0659 277.944 63.0428C278.106 64.0196 278.57 64.7891 279.334 65.3511C280.092 65.9083 280.994 66.1 282.04 65.9263Z" fill="white"/>
            <path d="M294.544 63.6996C293.535 62.9887 292.927 61.9643 292.723 60.6264C292.518 59.2884 292.791 58.1293 293.542 57.1489C294.288 56.1753 295.339 55.5847 296.694 55.3773C298.049 55.17 299.229 55.4193 300.232 56.1253C301.235 56.8313 301.839 57.8561 302.045 59.1999C302.25 60.5436 301.98 61.7023 301.234 62.676C300.488 63.6496 299.437 64.2402 298.082 64.4476C296.727 64.6549 295.548 64.4056 294.544 63.6996ZM297.92 63.3876C298.968 63.2272 299.766 62.7643 300.313 61.999C300.859 61.2337 301.057 60.3587 300.907 59.374C300.756 58.3894 300.305 57.6137 299.555 57.0469C298.805 56.4858 297.906 56.2855 296.858 56.446C295.815 56.6055 295.017 57.0655 294.464 57.8259C293.912 58.5979 293.711 59.4734 293.861 60.4522C294.011 61.431 294.464 62.2063 295.221 62.778C295.972 63.3448 296.872 63.548 297.92 63.3876Z" fill="white"/>
            <path d="M306.174 61.9464C305.183 61.23 304.592 60.199 304.399 58.8533C304.206 57.5077 304.485 56.352 305.234 55.3864C305.972 54.4224 307.023 53.8429 308.386 53.6477C308.977 53.5629 309.553 53.5723 310.112 53.6757C310.671 53.7732 311.148 53.9417 311.543 54.181C311.92 54.4171 312.254 54.683 312.545 54.9787C313.079 55.5237 313.382 56.0515 313.456 56.5619L312.298 56.7276C312.28 56.6 312.189 56.4206 312.026 56.1895C311.869 55.9575 311.653 55.7132 311.379 55.4564C311.079 55.1797 310.682 54.9673 310.187 54.8192C309.668 54.6685 309.119 54.6347 308.539 54.7178C307.495 54.8673 306.698 55.3188 306.149 56.0722C305.601 56.8314 305.397 57.7041 305.539 58.6901C305.68 59.6761 306.12 60.4566 306.859 61.0314C307.587 61.6079 308.479 61.8205 309.535 61.6693C310.115 61.5863 310.632 61.3996 311.088 61.1095C311.527 60.8276 311.849 60.5093 312.052 60.1545C312.446 59.4766 312.622 58.9868 312.579 58.6852L313.736 58.5195C313.801 58.8476 313.73 59.281 313.523 59.8197C313.321 60.3575 313.003 60.8619 312.567 61.3327C312.255 61.6734 311.845 61.9718 311.337 62.228C310.828 62.4785 310.278 62.646 309.687 62.7308C308.329 62.9251 307.158 62.6637 306.174 61.9464Z" fill="white"/>
            <path d="M317.592 60.3592C316.603 59.6295 316.022 58.5969 315.848 57.2613C315.674 55.9258 315.972 54.7788 316.741 53.8203C317.505 52.8683 318.563 52.3042 319.916 52.1281C321.269 51.952 322.436 52.2262 323.418 52.9509C324.401 53.6756 324.979 54.7085 325.154 56.0499C325.328 57.3912 325.034 58.5378 324.27 59.4898C323.506 60.4418 322.448 61.0058 321.095 61.1819C319.742 61.3581 318.574 61.0838 317.592 60.3592ZM320.957 60.1239C322.003 59.9877 322.807 59.545 323.368 58.7958C323.929 58.0466 324.145 57.1806 324.018 56.1978C323.89 55.2149 323.459 54.4332 322.724 53.8526C321.991 53.2778 321.101 53.0586 320.055 53.1948C319.014 53.3303 318.21 53.7701 317.643 54.5143C317.077 55.27 316.857 56.1364 316.984 57.1134C317.112 58.0905 317.545 58.8718 318.286 59.4574C319.02 60.038 319.91 60.2602 320.957 60.1239Z" fill="white"/>
            <path d="M335.796 56.6852C335.907 57.5808 335.612 58.2784 334.912 58.7781C334.218 59.2771 333.255 59.6027 332.022 59.7549C329.295 60.0917 327.822 59.3791 327.605 57.6171L327.577 57.3903L328.684 57.2535L328.712 57.4803C328.783 58.0502 329.081 58.4326 329.607 58.6274C330.132 58.8164 330.895 58.8492 331.895 58.7256C333.884 58.48 334.815 57.8455 334.689 56.822C334.559 55.7753 333.517 55.3697 331.563 55.6051L330.045 55.7926L329.918 54.7633L331.61 54.5543C333.286 54.3119 334.067 53.7254 333.952 52.795C333.833 51.8297 332.846 51.4616 330.991 51.6906C330.078 51.8034 329.396 52.0233 328.947 52.3504C328.502 52.671 328.31 53.0726 328.369 53.5553L328.378 53.625L327.27 53.7619L327.262 53.6921C327.159 52.8605 327.441 52.1821 328.108 51.6569C328.776 51.1317 329.694 50.797 330.863 50.6526C332.049 50.5061 333.019 50.593 333.773 50.9131C334.527 51.2333 334.954 51.8034 335.056 52.6233C335.114 53.0943 335.026 53.5066 334.792 53.8602C334.558 54.208 334.315 54.4388 334.063 54.5525L333.669 54.734L333.673 54.7688C333.896 54.8004 334.118 54.8527 334.339 54.9257C334.567 55.0038 334.774 55.1023 334.96 55.221C335.159 55.3499 335.337 55.5493 335.495 55.8192C335.657 56.0825 335.758 56.3712 335.796 56.6852Z" fill="white"/>
            <path d="M346.851 57.8347L345.742 57.961L345.285 53.9528L339.312 54.6333L339.769 58.6416L338.66 58.7679L337.661 50.0004L338.77 49.8741L339.194 53.5941L345.167 52.9136L344.743 49.1935L345.852 49.0672L346.851 57.8347Z" fill="white"/>
            <path d="M349.198 55.1513C349.113 54.2979 349.435 53.6079 350.162 53.0815C350.883 52.5614 351.829 52.2436 352.998 52.1278C353.611 52.0671 354.206 52.0849 354.783 52.1813C355.354 52.2841 355.763 52.3941 356.01 52.5113L356.411 52.7107L356.251 51.0974C356.18 50.3785 355.854 49.8559 355.273 49.5298C354.686 49.2101 353.987 49.0905 353.174 49.1709C352.379 49.2496 351.706 49.4816 351.154 49.8668C350.601 50.2461 350.349 50.6784 350.397 51.1635L349.283 51.2738C349.241 50.5461 349.537 49.8734 350.172 49.2556C350.813 48.6315 351.767 48.2566 353.036 48.1311C354.181 48.0176 355.161 48.198 355.976 48.6722C356.796 49.1517 357.259 49.9234 357.365 50.9872L357.733 54.7047C357.774 55.1255 357.868 55.4173 358.014 55.5799C358.165 55.7361 358.396 55.7989 358.706 55.7682C358.904 55.7485 359.063 55.7092 359.181 55.6503L359.229 55.6013L359.326 56.5745C359.17 56.6725 358.934 56.7371 358.619 56.7684C358.064 56.8234 357.654 56.7371 357.389 56.5094C357.12 56.2941 356.955 56.1186 356.894 55.9829L356.866 55.8795L356.814 55.8847C356.78 55.9589 356.617 56.1019 356.325 56.3138C356.122 56.4696 355.911 56.6056 355.692 56.7217C355.151 57.035 354.448 57.2345 353.583 57.3201C352.373 57.4399 351.361 57.3276 350.548 56.9831C349.735 56.6387 349.285 56.028 349.198 55.1513ZM350.346 55.0376C350.448 56.0663 351.54 56.4777 353.62 56.2716C354.234 56.2109 354.795 56.0639 355.303 55.8306C355.806 55.5979 356.136 55.4147 356.294 55.281C356.44 55.1485 356.553 55.0399 356.633 54.9552L356.511 53.719C356.465 53.6704 356.342 53.5969 356.144 53.4986C355.921 53.3966 355.551 53.2975 355.034 53.2011C354.493 53.1012 353.918 53.0814 353.311 53.1416C352.083 53.2631 351.219 53.5641 350.717 54.0446C350.432 54.3208 350.308 54.6518 350.346 55.0376Z" fill="white"/>
            <path d="M369.392 55.5841L368.281 55.6874L367.907 51.6705L361.921 52.2268L362.295 56.2437L361.183 56.347L360.367 47.5607L361.478 47.4574L361.824 51.1854L367.81 50.6291L367.464 46.901L368.575 46.7977L369.392 55.5841Z" fill="white"/>
            <path d="M380.658 54.6705L379.544 54.7584L379.226 50.7317L373.225 51.2052L373.543 55.2319L372.429 55.3199L371.734 46.512L372.848 46.4241L373.143 50.1613L379.144 49.6877L378.849 45.9505L379.963 45.8626L380.658 54.6705Z" fill="white"/>
            <path d="M392.384 53.8116L391.777 45.0012L392.891 44.9244L393.498 53.7348L392.384 53.8116ZM389.283 48.9819C389.971 49.4165 390.348 50.1077 390.413 51.0554C390.479 52.009 390.2 52.7482 389.578 53.273C388.951 53.8041 388.023 54.112 386.794 54.1966L383.688 54.4106L383.081 45.6002L384.195 45.5235L384.406 48.586L386.398 48.4488C387.627 48.3642 388.588 48.5419 389.283 48.9819ZM388.728 52.5734C389.123 52.2523 389.299 51.7729 389.255 51.1352C389.211 50.5034 388.971 50.0526 388.536 49.7828C388.088 49.5197 387.4 49.4202 386.469 49.4843L384.477 49.6215L384.73 53.2896L386.722 53.1524C387.652 53.0883 388.321 52.8953 388.728 52.5734Z" fill="white"/>
            <path d="M404.725 45.4681L404.69 45.4701L402.006 50.8361L400.496 50.9229L397.214 45.8998L397.179 45.9018L397.614 53.4655L396.5 53.5296L395.993 44.7199L397.722 44.6205L401.183 50.0118L401.219 50.0098L404.048 44.2569L405.768 44.158L406.275 52.9677L405.16 53.0318L404.725 45.4681Z" fill="white"/>
            <path d="M421.845 52.2783L420.747 52.3228L420.438 44.7002L420.403 44.7016L415.188 52.548L413.625 52.6113L413.268 43.7944L414.365 43.7499L414.674 51.3813L414.71 51.3799L419.924 43.5247L421.487 43.4613L421.845 52.2783Z" fill="white"/>
            <path d="M432.526 49.5454C432.552 50.4474 432.193 51.1142 431.449 51.546C430.711 51.9776 429.721 52.2112 428.48 52.247C425.733 52.3261 424.334 51.4784 424.283 49.7037L424.276 49.4753L425.392 49.4431L425.399 49.6716C425.415 50.2455 425.676 50.6542 426.181 50.8976C426.686 51.1351 427.443 51.2393 428.45 51.2103C430.453 51.1526 431.44 50.6084 431.41 49.5775C431.38 48.5233 430.38 48.0216 428.412 48.0724L426.884 48.1164L426.854 47.0798L428.558 47.0307C430.25 46.9468 431.082 46.4363 431.055 45.4992C431.027 44.5269 430.079 44.0677 428.211 44.1215C427.291 44.148 426.592 44.3029 426.114 44.5864C425.641 44.8638 425.412 45.2455 425.426 45.7316L425.428 45.8019L424.312 45.8341L424.31 45.7638C424.286 44.9262 424.631 44.2774 425.344 43.8172C426.058 43.357 427.003 43.1099 428.18 43.076C429.375 43.0416 430.333 43.2192 431.053 43.6088C431.774 43.9983 432.146 44.606 432.17 45.4319C432.184 45.9063 432.057 46.3085 431.791 46.6386C431.525 46.9628 431.262 47.1697 431 47.2593L430.591 47.4029L430.592 47.4381C430.811 47.4904 431.027 47.5633 431.24 47.6568C431.46 47.756 431.657 47.8734 431.831 48.0091C432.017 48.1562 432.175 48.3714 432.307 48.6549C432.444 48.9323 432.517 49.2291 432.526 49.5454Z" fill="white"/>
            <path d="M443.744 44.173L443.709 44.1736L440.804 49.424L439.293 49.4483L436.221 44.2938L436.186 44.2944L436.308 51.8696L435.192 51.8875L435.05 43.0644L436.781 43.0366L440.017 48.5664L440.052 48.5659L443.117 42.9349L444.84 42.9072L444.981 51.7303L443.865 51.7482L443.744 44.173Z" fill="white"/>
            <path d="M457.116 47.3106L457.063 47.9963L448.885 47.9866C448.885 48.2562 449.031 48.6374 449.323 49.1302C449.493 49.4176 449.698 49.6817 449.938 49.9223C450.196 50.1805 450.547 50.3949 450.992 50.5654C451.438 50.736 451.918 50.8216 452.434 50.8222C452.809 50.8226 453.17 50.7791 453.516 50.6916C453.862 50.604 454.146 50.4901 454.369 50.3497C454.803 50.0805 455.088 49.8405 455.223 49.6296L455.337 49.4891L456.683 49.4907C456.648 49.5786 456.606 49.6635 456.559 49.7456C456.489 49.8744 456.339 50.0706 456.11 50.3342C455.864 50.6152 455.6 50.8582 455.318 51.063C455.019 51.2796 454.614 51.4696 454.104 51.6331C453.588 51.8084 453.031 51.8956 452.433 51.8949C451.038 51.8932 449.898 51.4669 449.014 50.6158C448.124 49.7589 447.68 48.6534 447.681 47.2993C447.683 45.9452 448.13 44.8407 449.022 43.9859C449.908 43.137 451.037 42.7133 452.409 42.715C453.78 42.7166 454.908 43.143 455.792 43.994C456.677 44.8451 457.118 45.9506 457.116 47.3106ZM448.851 46.9402L455.947 46.9486C455.948 46.2335 455.638 45.5297 455.018 44.8372C454.397 44.1447 453.527 43.7978 452.407 43.7965C451.288 43.7952 450.417 44.14 449.795 44.831C449.167 45.5278 448.852 46.2309 448.851 46.9402Z" fill="white"/>
            <path d="M468.034 51.796L466.918 51.7834L466.963 47.7494L460.952 47.6812L460.906 51.7152L459.79 51.7025L459.89 42.8788L461.006 42.8915L460.964 46.6354L466.975 46.7036L467.018 42.9597L468.134 42.9724L468.034 51.796Z" fill="white"/>
            <path d="M480.233 47.6171L480.166 48.3022L471.983 48.129C471.978 48.3988 472.116 48.7832 472.399 49.2821C472.563 49.5731 472.763 49.8414 472.998 50.087C473.251 50.3505 473.598 50.572 474.04 50.7516C474.483 50.9311 474.962 51.0263 475.478 51.0372C475.853 51.0452 476.215 51.0088 476.563 50.9282C476.911 50.8475 477.198 50.7392 477.424 50.6031C477.863 50.3425 478.153 50.108 478.292 49.8997L478.41 49.7614L479.756 49.7899C479.719 49.8771 479.676 49.9613 479.627 50.0424C479.554 50.17 479.4 50.3633 479.166 50.6224C478.914 50.8987 478.645 51.1365 478.359 51.3359C478.055 51.5466 477.646 51.7286 477.132 51.882C476.613 52.0471 476.053 52.1233 475.455 52.1106C474.059 52.0811 472.927 51.6317 472.06 50.7625C471.186 49.8872 470.764 48.7722 470.793 47.4173C470.821 46.0624 471.29 44.9662 472.2 44.1287C473.104 43.297 474.242 42.8956 475.614 42.9247C476.987 42.9537 478.107 43.4029 478.975 44.2721C479.842 45.1413 480.262 46.2563 480.233 47.6171ZM471.97 47.0813L479.07 47.2316C479.086 46.516 478.79 45.8056 478.183 45.1003C477.575 44.395 476.712 44.0306 475.591 44.0068C474.471 43.9831 473.593 44.3108 472.956 44.9897C472.314 45.6744 471.985 46.3716 471.97 47.0813Z" fill="white"/>
            <path d="M491.055 52.5025L489.94 52.4583L490.1 48.4272L484.093 48.1891L483.933 52.2201L482.817 52.1759L483.167 43.3586L484.282 43.4028L484.134 47.144L490.141 47.3822L490.289 43.641L491.405 43.6852L491.055 52.5025Z" fill="white"/>
            <path d="M502.307 53.0906L501.21 53.0312L501.623 45.4135L501.588 45.4116L495.655 52.7304L494.093 52.6457L494.57 43.8344L495.667 43.8939L495.254 51.5204L495.289 51.5223L501.223 44.1947L502.785 44.2793L502.307 53.0906Z" fill="white"/>
            <path d="M506.229 53.3358L504.992 53.2513L507.31 50.0181C507.121 49.9523 506.9 49.8344 506.647 49.6644C506.428 49.5202 506.242 49.3548 506.091 49.1683C505.917 48.9567 505.772 48.6825 505.654 48.3456C505.542 48.0032 505.499 47.642 505.525 47.262C505.586 46.3676 505.937 45.6986 506.578 45.2549C507.22 44.8054 508.096 44.6187 509.207 44.6946L513.047 44.9571L512.446 53.7608L511.332 53.6846L511.551 50.4841L508.447 50.2719L506.229 53.3358ZM511.863 45.9244L509.135 45.738C507.581 45.6318 506.763 46.1661 506.683 47.3411C506.602 48.5161 507.316 49.1551 508.824 49.2582L511.622 49.4494L511.863 45.9244Z" fill="white"/>
            <path d="M524.765 47.1595L524.73 47.1566L521.316 52.0908L519.809 51.964L517.268 46.5287L517.233 46.5257L516.597 54.0752L515.485 53.9816L516.225 45.1885L517.95 45.3337L520.618 51.1589L520.653 51.1619L524.265 45.865L525.982 46.0095L525.242 54.8026L524.129 54.709L524.765 47.1595Z" fill="white"/>
            <path d="M540.791 49.8879C540.741 50.3598 540.585 50.7379 540.325 51.0224C540.071 51.3016 539.827 51.4639 539.592 51.5095L539.239 51.5866L539.233 51.639C539.379 51.6546 539.597 51.7398 539.887 51.8947C540.097 52.0174 540.277 52.1517 540.427 52.2973C540.597 52.4688 540.731 52.7041 540.828 53.0033C540.926 53.3026 540.956 53.627 540.919 53.9765C540.746 55.5845 539.495 56.2635 537.164 56.0137L532.568 55.5208L533.508 46.7469L537.878 47.2154C538.88 47.3228 539.636 47.6072 540.147 48.0685C540.658 48.5241 540.872 49.1305 540.791 49.8879ZM533.789 54.5998L537.276 54.9737C538.866 55.1443 539.713 54.746 539.817 53.7789C539.921 52.8117 539.192 52.2445 537.631 52.0771L534.1 51.6985L533.789 54.5998ZM539.672 49.8563C539.771 48.9358 539.136 48.4021 537.766 48.2553L534.507 47.9058L534.211 50.6673L537.628 51.0337C538.234 51.0987 538.712 51.0292 539.064 50.8253C539.422 50.6221 539.625 50.299 539.672 49.8563Z" fill="white"/>
            <path d="M560.41 58.8981L558.929 58.7015L554.369 53.6455L553.788 58.0193L552.682 57.8724L553.262 53.4986L547.541 57.1902L546.06 56.9936L551.84 53.2567L547.578 48.2935L549.059 48.4901L553.271 53.4289L553.843 49.1249L554.949 49.2717L554.378 53.5758L559.732 49.9066L561.214 50.1032L555.805 53.7829L560.41 58.8981Z" fill="white"/>
            <path d="M570.034 60.3842L568.948 60.218L570.102 52.6769L570.067 52.6716L563.449 59.3765L561.902 59.1398L563.237 50.4172L564.323 50.5833L563.168 58.1332L563.202 58.1385L569.822 51.4249L571.369 51.6615L570.034 60.3842Z" fill="white"/>
            <path d="M581.051 59.8389C580.896 60.7281 580.411 61.3098 579.595 61.5842C578.786 61.8596 577.769 61.8906 576.545 61.6773C573.837 61.2055 572.636 60.0949 572.941 58.3455L572.98 58.1203L574.08 58.312L574.041 58.5371C573.942 59.1029 574.116 59.5556 574.562 59.8952C575.01 60.2289 575.73 60.4824 576.723 60.6554C578.698 60.9995 579.774 60.6634 579.951 59.6473C580.132 58.608 579.253 57.9165 577.314 57.5727L575.807 57.3101L575.985 56.2882L577.665 56.581C579.34 56.8371 580.258 56.5033 580.419 55.5795C580.586 54.6211 579.748 53.9814 577.906 53.6605C577 53.5025 576.284 53.5146 575.759 53.6967C575.24 53.874 574.939 54.2022 574.855 54.6814L574.843 54.7507L573.743 54.5591L573.755 54.4898C573.899 53.6642 574.367 53.0972 575.158 52.789C575.95 52.4807 576.926 52.4277 578.086 52.6299C579.264 52.8351 580.167 53.2007 580.795 53.7266C581.423 54.2525 581.666 54.9224 581.524 55.7365C581.443 56.2042 581.239 56.5731 580.912 56.8434C580.587 57.1079 580.287 57.2579 580.013 57.2934L579.583 57.3524L579.577 57.3871C579.781 57.482 579.978 57.5967 580.169 57.7311C580.364 57.8722 580.534 58.0267 580.677 58.1944C580.83 58.3757 580.942 58.6184 581.014 58.9224C581.093 59.2217 581.105 59.5272 581.051 59.8389Z" fill="white"/>
            <path d="M591.27 64.1575L590.173 63.95L590.923 59.9861L585.016 58.8689L584.266 62.8328L583.169 62.6254L584.809 53.9549L585.906 54.1623L585.21 57.8412L591.117 58.9584L591.813 55.2795L592.91 55.487L591.27 64.1575Z" fill="white"/>
            <path d="M602.268 66.4172L601.195 66.1953L602.736 58.7478L602.702 58.7407L595.764 65.0716L594.237 64.7556L596.019 56.1412L597.092 56.3631L595.549 63.8192L595.583 63.8263L602.523 57.4868L604.05 57.8028L602.268 66.4172Z" fill="white"/>
        </g>
    </g>
    <defs>
        <clipPath id="clip0">
            <rect y="21.0952" width="732.67" height="92.18" transform="rotate(-1.6499 0 21.0952)" fill="white"/>
        </clipPath>
        <clipPath id="clip1">
            <rect x="7.86087" y="50.8812" width="732.67" height="92.18" transform="rotate(-1.6499 7.86087 50.8812)" fill="white"/>
        </clipPath>
    </defs>
</svg>
