<svg width="258" height="279" viewBox="0 0 258 279" fill="none" xmlns="http://www.w3.org/2000/svg">
    <path d="M199.842 10.7141C224.63 24.0029 239.645 50.3887 243.771 82.4737C247.898 114.556 241.115 152.244 222.39 187.904C203.665 223.564 176.582 250.368 147.978 264.903C119.37 279.439 89.3287 281.669 64.5412 268.381C39.7537 255.092 24.7386 228.706 20.6118 196.621C16.4855 164.539 23.2681 126.851 41.9932 91.1911C60.7182 55.5312 87.801 28.7263 116.406 14.1918C145.013 -0.34422 175.055 -2.5747 199.842 10.7141Z" stroke="#00288D" stroke-width="2"/>
    <path d="M227.659 31.4463C249.785 48.4914 258.929 76.0702 255.663 107.025C252.398 137.975 236.725 172.202 209.368 202.33C182.011 232.458 148.209 252.718 115.714 261.15C83.214 269.584 52.1277 266.17 30.0019 249.125C7.87606 232.08 -1.26773 204.501 1.9981 173.547C5.26346 142.596 20.9364 108.369 48.2931 78.2417C75.6498 48.1139 109.452 27.8537 141.947 19.4212C174.447 10.9876 205.533 14.4011 227.659 31.4463Z" stroke="#00288D" stroke-width="2"/>
</svg>
