<svg width="44" height="44" viewBox="0 0 44 44" fill="none" xmlns="http://www.w3.org/2000/svg">
<circle cx="22" cy="22" r="21.5" stroke="#31ABEF"/>
<path d="M31.7917 21.3181V16.0833C31.7917 14.9344 30.8573 14 29.7083 14H14.0833C12.9343 14 12 14.9343 12 16.0833V26.5C12 27.649 12.9343 28.5833 14.0833 28.5833H25.7638C26.4462 30.9844 28.654 32.75 31.2708 32.75C32.2779 32.75 33.2682 32.485 34.1359 31.983C34.3847 31.8391 34.4701 31.5207 34.3256 31.2714C34.1817 31.0222 33.8628 30.9362 33.6141 31.0817C32.905 31.4917 32.0948 31.7083 31.2708 31.7083C28.6859 31.7083 26.5833 29.6057 26.5833 27.0208C26.5833 24.436 28.686 22.3334 31.2708 22.3334C33.8556 22.3334 35.9583 24.436 35.9583 27.0208V27.5417C35.9583 28.1159 35.4909 28.5833 34.9167 28.5833C34.3424 28.5833 33.875 28.1159 33.875 27.5417V25.4583C33.875 25.1705 33.642 24.9375 33.3542 24.9375C33.2141 24.9375 33.0882 24.9942 32.9947 25.084C32.5343 24.6738 31.9344 24.4167 31.2708 24.4167C29.835 24.4167 28.6667 25.585 28.6667 27.0208C28.6667 28.4566 29.835 29.625 31.2708 29.625C32.047 29.625 32.7372 29.2768 33.2147 28.7362C33.592 29.2722 34.2127 29.625 34.9167 29.625C36.0657 29.625 37 28.6907 37 27.5417V27.0208C37 24.0375 34.7072 21.5824 31.7917 21.3181ZM14.0833 15.0417H29.7083C29.73 15.0417 29.7482 15.0527 29.7696 15.0541L22.3241 21.1655C22.0591 21.3324 21.6751 21.2978 21.5027 21.192L14.0228 15.054C14.0439 15.0527 14.0619 15.0417 14.0833 15.0417ZM30.75 21.3181C27.8344 21.5824 25.5417 24.0375 25.5417 27.0208C25.5417 27.1966 25.5524 27.3699 25.568 27.5417H14.0833C13.5091 27.5417 13.0417 27.0743 13.0417 26.5V16.0833C13.0417 15.9358 13.0743 15.7965 13.1298 15.6693L20.8878 22.0312C21.1909 22.2291 21.5394 22.3334 21.8959 22.3334C22.2387 22.3334 22.5739 22.2368 22.8689 22.0537C22.8984 22.0379 22.9264 22.0191 22.9528 21.9972L30.6618 15.6692C30.7174 15.7965 30.75 15.9358 30.75 16.0834V21.3181H30.75ZM31.2708 28.5833C30.4092 28.5833 29.7083 27.8825 29.7083 27.0208C29.7083 26.1592 30.4092 25.4583 31.2708 25.4583C32.1325 25.4583 32.8333 26.1592 32.8333 27.0208C32.8333 27.8825 32.1325 28.5833 31.2708 28.5833Z" fill="white"/>
</svg>
