<svg width="44" height="32" viewBox="0 0 44 32" fill="none" xmlns="http://www.w3.org/2000/svg">
<path d="M43.9 27H38.43V24.26H41.16V16.27L38.81 9.20997H28.84V24.26H30.21V27H26.11V6.46997H40.78L43.9 15.83V27Z" fill="#3B065B"/>
<path d="M34.32 31.1099C31.3 31.1099 28.84 28.6499 28.84 25.6299C28.84 22.6099 31.3 20.1499 34.32 20.1499C37.34 20.1499 39.8 22.6099 39.8 25.6299C39.79 28.6499 37.34 31.1099 34.32 31.1099ZM34.32 22.8899C32.81 22.8899 31.58 24.1199 31.58 25.6299C31.58 27.1399 32.81 28.3699 34.32 28.3699C35.83 28.3699 37.06 27.1399 37.06 25.6299C37.06 24.1199 35.83 22.8899 34.32 22.8899Z" fill="#3B065B"/>
<path d="M8.30997 26.9999H2.83997V17.4199H5.56997V24.2599H8.30997V26.9999Z" fill="#3B065B"/>
<path d="M28.84 27H16.52V24.26H26.11V3.72999H0.0999756V0.98999H28.84V27Z" fill="#3B065B"/>
<path d="M12.4199 31.1099C9.39994 31.1099 6.93994 28.6499 6.93994 25.6299C6.93994 22.6099 9.39994 20.1499 12.4199 20.1499C15.4399 20.1499 17.8999 22.6099 17.8999 25.6299C17.8899 28.6499 15.4399 31.1099 12.4199 31.1099ZM12.4199 22.8899C10.9099 22.8899 9.67994 24.1199 9.67994 25.6299C9.67994 27.1399 10.9099 28.3699 12.4199 28.3699C13.9299 28.3699 15.1599 27.1399 15.1599 25.6299C15.1599 24.1199 13.9299 22.8899 12.4199 22.8899Z" fill="#3B065B"/>
<path d="M13.79 6.46997H1.46997V9.20997H13.79V6.46997Z" fill="#3B065B"/>
<path d="M11.05 11.9399H2.83997V14.6799H11.05V11.9399Z" fill="#3B065B"/>
</svg>
