<svg width="47" height="47" viewBox="0 0 47 47" fill="none" xmlns="http://www.w3.org/2000/svg">
<path d="M23.5 0.642334C10.8749 0.642334 0.642578 10.8747 0.642578 23.4998C0.642578 36.1249 10.8749 46.3572 23.5 46.3572C36.1251 46.3572 46.3574 36.1249 46.3574 23.4998C46.3574 10.8746 36.1251 0.642334 23.5 0.642334ZM23.5 44.5286C11.9052 44.5286 2.47117 35.0945 2.47117 23.4997C2.47117 11.9048 11.9052 2.47084 23.5 2.47084C35.0949 2.47084 44.5288 11.9049 44.5288 23.4997C44.5288 35.0945 35.0949 44.5286 23.5 44.5286Z" fill="#3B065B"/>
<path d="M35.2715 14.5216L19.9124 29.8816L11.7373 21.7083L10.4391 23.0066L19.9124 32.4781L36.5608 15.8198L35.2715 14.5216Z" fill="#3B065B"/>
</svg>
