<svg width="46" height="50" viewBox="0 0 46 50" fill="none" xmlns="http://www.w3.org/2000/svg">
<path d="M43.5417 0H33.3333H12.5H2.29167C1.04167 0 0 1.04167 0 2.29167V47.7083C0 48.9583 1.04167 50 2.29167 50H43.5417C44.7917 50 45.8333 48.9583 45.8333 47.7083V2.29167C45.8333 1.04167 44.7917 0 43.5417 0ZM12.5 2.08333H33.3333V8.33333H12.5V2.08333ZM12.5 10.4167H33.3333C34.5833 10.4167 35.4167 9.58333 35.625 8.33333H37.5V41.6667H8.33333V8.33333H10.2083C10.4167 9.58333 11.25 10.4167 12.5 10.4167ZM41.6667 45.8333H4.16667V4.16667H10.4167V6.25H6.25V43.75H39.5833V6.25H35.4167V4.16667H41.6667V45.8333Z" fill="#3B065B"/>
<path d="M19.375 32.7081C20.2083 33.5414 21.4583 33.5414 22.2917 32.7081L30.8333 24.1664C31.6667 23.3331 31.6667 22.0831 30.8333 21.2498C30 20.4164 28.75 20.4164 27.9167 21.2498L20.8333 28.5414L17.9167 25.6248C17.0833 24.7914 15.8333 24.7914 15 25.6248C14.1667 26.4581 14.1667 27.7081 15 28.5414L19.375 32.7081Z" fill="#3B065B"/>
</svg>
