<svg width="13" height="10" viewBox="0 0 13 10" fill="none" xmlns="http://www.w3.org/2000/svg">
<path d="M4.39318 9.41419C4.28606 9.41385 4.18015 9.39147 4.08204 9.34847C3.98393 9.30546 3.89571 9.24273 3.82287 9.16419L0.174433 5.25794C0.0497699 5.1042 -0.0118936 4.90888 0.00190098 4.71143C0.0156956 4.51398 0.10392 4.32913 0.248748 4.19422C0.393577 4.05931 0.584214 3.98441 0.782143 3.98463C0.980072 3.98486 1.17054 4.0602 1.31506 4.19544L4.39318 7.4845L11.1119 0.28919C11.1794 0.205997 11.2632 0.137564 11.3583 0.0881418C11.4533 0.0387196 11.5575 0.00936462 11.6643 0.0018998C11.7711 -0.00556502 11.8784 0.0090198 11.9794 0.0447488C12.0803 0.0804779 12.1729 0.136587 12.2513 0.209592C12.3296 0.282597 12.3922 0.370937 12.4349 0.469125C12.4777 0.567313 12.4999 0.673252 12.5 0.780359C12.5001 0.887466 12.4782 0.993454 12.4357 1.09174C12.3931 1.19002 12.3308 1.27851 12.2526 1.35169L4.96349 9.16419C4.89065 9.24273 4.80243 9.30546 4.70432 9.34847C4.60621 9.39147 4.5003 9.41385 4.39318 9.41419Z" fill="black"/>
</svg>
