<svg width="304" height="227" viewBox="0 0 304 227" fill="none" xmlns="http://www.w3.org/2000/svg">
    <path d="M2.06516 143.291C-2.54079 114.345 9.64646 85.0826 33.264 61.1569C56.8799 37.2328 91.8693 18.7149 132.645 11.3354C173.42 3.956 212.179 9.12713 241.873 23.4032C271.57 37.6804 292.127 61.0166 296.733 89.9629C301.339 118.909 289.151 148.171 265.534 172.097C241.918 196.021 206.928 214.539 166.153 221.919C125.378 229.298 86.6187 224.127 56.9244 209.851C27.2279 195.574 6.67112 172.237 2.06516 143.291Z" stroke="#00288D" stroke-width="2"/>
    <path d="M14.2102 158.012C5.96946 129.884 14.3462 99.3125 34.7378 72.584C55.128 45.8574 87.4856 23.0505 126.996 10.558C166.505 -1.93442 205.607 -1.72185 236.873 8.67201C268.14 19.0666 291.491 39.6066 299.732 67.7347C307.973 95.8629 299.596 126.435 279.204 153.163C258.814 179.89 226.457 202.697 186.947 215.189C147.437 227.682 108.335 227.469 77.0697 217.075C45.802 206.681 22.451 186.141 14.2102 158.012Z" stroke="#00288D" stroke-width="2"/>
</svg>
