<svg width="353" height="178" viewBox="0 0 353 178" fill="none" xmlns="http://www.w3.org/2000/svg">
    <path d="M350.419 47.7964C355.002 68.876 340.625 92.7617 312.909 114.38C285.269 135.938 244.675 154.97 197.677 166.312C150.679 177.653 106.27 179.135 72.4786 172.401C38.5939 165.648 15.7818 150.737 11.1988 129.658C6.61586 108.578 20.9929 84.6924 48.7095 63.0743C76.3495 41.5159 116.943 22.484 163.941 11.1424C210.939 -0.199226 255.348 -1.68041 289.139 5.05334C323.024 11.8057 345.836 26.7169 350.419 47.7964Z" stroke="#00288D" stroke-width="2"/>
    <path d="M344.553 63.0703C347.65 84.7213 331.681 107.617 302.623 127.114C273.639 146.561 231.949 162.389 184.424 169.933C136.899 177.477 92.6336 175.293 59.4981 165.706C26.2768 156.095 4.61414 139.172 1.51788 117.521C-1.57838 95.8705 14.3899 72.9747 43.4485 53.4773C72.432 34.0303 114.122 18.2028 161.647 10.659C209.172 3.1152 253.438 5.29868 286.573 14.8853C319.794 24.4968 341.457 41.4193 344.553 63.0703Z" stroke="#00288D" stroke-width="2"/>
</svg>
