<svg width="269" height="270" viewBox="0 0 269 270" fill="none" xmlns="http://www.w3.org/2000/svg">
    <path d="M47.3208 254.118C24.4408 237.762 12.9313 209.67 12.9508 177.32C12.9703 144.974 24.5272 108.466 47.6683 75.5003C70.8093 42.5343 101.104 19.4216 131.336 8.67308C161.57 -2.07652 191.65 -0.438311 214.53 15.9178C237.41 32.2739 248.919 60.3665 248.9 92.7158C248.88 125.062 237.323 161.57 214.182 194.536C191.041 227.502 160.746 250.615 130.515 261.363C100.28 272.113 70.2007 270.474 47.3208 254.118Z" stroke="#00288D" stroke-width="2"/>
    <path d="M22.3903 229.992C2.63159 210.252 -2.90214 181.728 4.30409 151.448C11.5093 121.171 31.4396 89.2352 62.4321 62.8621C93.4245 36.489 129.545 20.7282 162.853 16.53C196.165 12.3312 226.558 19.7008 246.316 39.4412C266.075 59.1815 271.609 87.7048 264.403 117.986C257.197 148.262 237.267 180.198 206.275 206.571C175.282 232.944 139.162 248.705 105.854 252.903C72.5415 257.102 42.149 249.732 22.3903 229.992Z" stroke="#00288D" stroke-width="2"/>
</svg>
