<svg width="46" height="50" viewBox="0 0 46 50" fill="none" xmlns="http://www.w3.org/2000/svg">
<path d="M43.5417 0H33.3333H12.5H2.29167C1.04167 0 0 1.04167 0 2.29167V47.7083C0 48.9583 1.04167 50 2.29167 50H43.5417C44.7917 50 45.8333 48.9583 45.8333 47.7083V2.29167C45.8333 1.04167 44.7917 0 43.5417 0ZM33.3333 2.08333V8.33333H12.5V2.08333H33.3333ZM10.2083 8.33333C10.4167 9.58333 11.25 10.4167 12.5 10.4167H33.3333C34.5833 10.4167 35.4167 9.58333 35.625 8.33333H37.5V41.6667H8.33333V8.33333H10.2083ZM41.6667 45.8333H4.16667V4.16667H10.4167V6.25H6.25V43.75H39.5833V6.25H35.4167V4.16667H41.6667V45.8333Z" fill="#3B065B"/>
<path d="M33.3333 25H12.5V27.0833H33.3333V25Z" fill="#3B065B"/>
<path d="M33.3333 20.8333H12.5V22.9166H33.3333V20.8333Z" fill="#3B065B"/>
<path d="M33.3333 16.6667H12.5V18.7501H33.3333V16.6667Z" fill="#3B065B"/>
<path d="M33.3333 29.1667H12.5V31.2501H33.3333V29.1667Z" fill="#3B065B"/>
<path d="M33.3333 33.3333H12.5V35.4166H33.3333V33.3333Z" fill="#3B065B"/>
</svg>
