<svg width="123" height="50" viewBox="0 0 123 50" fill="none" xmlns="http://www.w3.org/2000/svg">
<g clip-path="url(#clip0)">
<path d="M32 0.830002H0.920044" stroke="black" stroke-miterlimit="10" stroke-linecap="round"/>
<path d="M0.58 49.71L0.5 0.369995" stroke="black" stroke-miterlimit="10"/>
<path d="M15.67 49.21H0.660034" stroke="black" stroke-miterlimit="10" stroke-linecap="round"/>
<path d="M90.83 0.5H121.92" stroke="black" stroke-miterlimit="10" stroke-linecap="round"/>
<path d="M122.25 49.38L122.33 0.0399933" stroke="black" stroke-miterlimit="10"/>
<path d="M107.16 48.88H122.17" stroke="black" stroke-miterlimit="10" stroke-linecap="round"/>
<path d="M31.8651 34.4079C31.8651 35.252 31.5652 35.9739 30.9654 36.5736C30.3768 37.1623 29.6604 37.4566 28.8163 37.4566V35.5074C29.1273 35.5074 29.3883 35.4019 29.5993 35.1909C29.8104 34.9799 29.9159 34.7189 29.9159 34.4079V8.76857H36.0133V37.34H34.0641V10.7178H31.8651V34.4079ZM42.4941 17.415C42.4941 17.104 42.3831 16.843 42.1609 16.632C41.9499 16.4209 41.6945 16.3154 41.3946 16.3154C41.0836 16.3154 40.8226 16.4209 40.6116 16.632C40.4006 16.843 40.2951 17.104 40.2951 17.415V34.4079C40.2951 34.7189 40.4006 34.9799 40.6116 35.1909C40.8226 35.4019 41.0836 35.5074 41.3946 35.5074C41.6945 35.5074 41.9499 35.4019 42.1609 35.1909C42.3831 34.9799 42.4941 34.7189 42.4941 34.4079V17.415ZM38.3459 17.415C38.3459 16.5709 38.6402 15.8545 39.2288 15.2659C39.8286 14.6661 40.5505 14.3662 41.3946 14.3662C42.2387 14.3662 42.9551 14.6661 43.5437 15.2659C44.1435 15.8545 44.4433 16.5709 44.4433 17.415V34.4079C44.4433 35.252 44.1435 35.9739 43.5437 36.5736C42.9551 37.1623 42.2387 37.4566 41.3946 37.4566C40.5505 37.4566 39.8286 37.1623 39.2288 36.5736C38.6402 35.9739 38.3459 35.252 38.3459 34.4079V17.415ZM50.9316 8.76857H52.8808V14.5662C53.2362 14.4329 53.6027 14.3662 53.9804 14.3662C54.8245 14.3662 55.5408 14.6661 56.1295 15.2659C56.7292 15.8545 57.0291 16.5709 57.0291 17.415V34.4079C57.0291 35.252 56.7292 35.9739 56.1295 36.5736C55.5408 37.1623 54.8245 37.4566 53.9804 37.4566C53.6027 37.4566 53.2362 37.39 52.8808 37.2567V43.0543H50.9316V37.2567C50.5762 37.39 50.2097 37.4566 49.8321 37.4566C48.988 37.4566 48.2661 37.1623 47.6663 36.5736C47.0777 35.9739 46.7834 35.252 46.7834 34.4079V17.415C46.7834 16.5709 47.0777 15.8545 47.6663 15.2659C48.2661 14.6661 48.988 14.3662 49.8321 14.3662C50.2097 14.3662 50.5762 14.4329 50.9316 14.5662V8.76857ZM55.0799 17.415C55.0799 17.104 54.9688 16.843 54.7467 16.632C54.5357 16.4209 54.2802 16.3154 53.9804 16.3154C53.6694 16.3154 53.4084 16.4209 53.1974 16.632C52.9863 16.843 52.8808 17.104 52.8808 17.415V34.4079C52.8808 34.7189 52.9863 34.9799 53.1974 35.1909C53.4084 35.4019 53.6694 35.5074 53.9804 35.5074C54.2802 35.5074 54.5357 35.4019 54.7467 35.1909C54.9688 34.9799 55.0799 34.7189 55.0799 34.4079V17.415ZM50.9316 34.4079V17.415C50.9316 17.104 50.8206 16.843 50.5984 16.632C50.3874 16.4209 50.132 16.3154 49.8321 16.3154C49.5211 16.3154 49.2601 16.4209 49.0491 16.632C48.8381 16.843 48.7326 17.104 48.7326 17.415V34.4079C48.7326 34.7189 48.8381 34.9799 49.0491 35.1909C49.2601 35.4019 49.5211 35.5074 49.8321 35.5074C50.132 35.5074 50.3874 35.4019 50.5984 35.1909C50.8206 34.9799 50.9316 34.7189 50.9316 34.4079ZM59.0116 14.4829H64.8092V16.432H62.8767V37.34H60.9275V16.432H59.0116V14.4829ZM66.7834 37.34V8.76857H68.7326V20.5637C69.3989 20.2194 69.9321 19.7196 70.3319 19.0643C70.7317 18.409 70.9316 17.6871 70.9316 16.8985V8.76857H72.8808V16.8985C72.8808 18.0647 72.5754 19.1365 71.9645 20.1138C71.3648 21.0801 70.5596 21.8187 69.5489 22.3296C70.5596 22.8405 71.3648 23.5846 71.9645 24.562C72.5754 25.5283 72.8808 26.5945 72.8808 27.7607V37.34H70.9316V27.7607C70.9316 26.9721 70.7317 26.2502 70.3319 25.5949C69.9321 24.9396 69.3989 24.4398 68.7326 24.0955V37.34H66.7834ZM79.3691 17.415C79.3691 17.104 79.2581 16.843 79.0359 16.632C78.8249 16.4209 78.5695 16.3154 78.2696 16.3154C77.9586 16.3154 77.6976 16.4209 77.4866 16.632C77.2756 16.843 77.1701 17.104 77.1701 17.415V34.4079C77.1701 34.7189 77.2756 34.9799 77.4866 35.1909C77.6976 35.4019 77.9586 35.5074 78.2696 35.5074C78.5695 35.5074 78.8249 35.4019 79.0359 35.1909C79.2581 34.9799 79.3691 34.7189 79.3691 34.4079V17.415ZM75.2209 17.415C75.2209 16.5709 75.5152 15.8545 76.1038 15.2659C76.7036 14.6661 77.4255 14.3662 78.2696 14.3662C79.1137 14.3662 79.8301 14.6661 80.4187 15.2659C81.0185 15.8545 81.3183 16.5709 81.3183 17.415V34.4079C81.3183 35.252 81.0185 35.9739 80.4187 36.5736C79.8301 37.1623 79.1137 37.4566 78.2696 37.4566C77.4255 37.4566 76.7036 37.1623 76.1038 36.5736C75.5152 35.9739 75.2209 35.252 75.2209 34.4079V17.415ZM85.6076 37.34H83.6584C83.6584 37.34 83.6584 30.6983 83.6584 17.415C83.6584 16.5709 83.9527 15.8545 84.5413 15.2659C85.1411 14.6661 85.863 14.3662 86.7071 14.3662C87.5179 14.3662 88.2065 14.6383 88.7729 15.1826C89.3504 14.6383 90.0446 14.3662 90.8554 14.3662C91.6995 14.3662 92.4158 14.6661 93.0045 15.2659C93.6042 15.8545 93.9041 16.5709 93.9041 17.415V37.34H91.9549V17.415C91.9549 17.104 91.8438 16.843 91.6217 16.632C91.4107 16.4209 91.1552 16.3154 90.8554 16.3154C90.5444 16.3154 90.2834 16.4209 90.0724 16.632C89.8613 16.843 89.7558 17.104 89.7558 17.415V37.34H87.8066V17.415C87.8066 17.104 87.6956 16.843 87.4734 16.632C87.2624 16.4209 87.007 16.3154 86.7071 16.3154C86.3961 16.3154 86.1351 16.4209 85.9241 16.632C85.7131 16.843 85.6076 17.104 85.6076 17.415V37.34Z" fill="black"/>
</g>
<defs>
<clipPath id="clip0">
<rect width="122.83" height="49.71" fill="white"/>
</clipPath>
</defs>
</svg>
