<svg width="44" height="44" viewBox="0 0 44 44" fill="none" xmlns="http://www.w3.org/2000/svg">
<circle cx="22" cy="22" r="21.5" stroke="#31ABEF"/>
<g clip-path="url(#clip0)">
<path d="M31.6116 27.9032L29.3944 26.4249L27.4233 25.1111C27.043 24.8581 26.5317 24.941 26.2509 25.3015L25.0313 26.8694C24.7693 27.2096 24.298 27.3074 23.9223 27.0994C23.0948 26.6391 22.1161 26.2056 19.9569 24.0436C17.7976 21.8815 17.3614 20.9057 16.901 20.0781C16.693 19.7024 16.7908 19.2311 17.131 18.9692L18.6989 17.7495C19.0594 17.4688 19.1424 16.9576 18.8893 16.5771L17.6159 14.6668L16.0973 12.3889C15.8388 12.0011 15.3214 11.8847 14.9218 12.1244L13.1704 13.1751C12.6971 13.4539 12.3491 13.9042 12.1987 14.4326C11.7197 16.1788 11.6232 20.0309 17.7965 26.2042C23.9699 32.3776 27.8216 32.2807 29.5678 31.8017C30.0962 31.6513 30.5465 31.3034 30.8253 30.83L31.876 29.0787C32.1157 28.679 31.9993 28.1616 31.6116 27.9032Z" fill="white"/>
<path d="M23.3448 14.6896C26.5808 14.6932 29.2032 17.3156 29.2068 20.5516C29.2068 20.7421 29.3612 20.8965 29.5516 20.8965C29.7421 20.8965 29.8965 20.7421 29.8965 20.5516C29.8925 16.9349 26.9616 14.004 23.3448 14C23.1544 14 23 14.1544 23 14.3448C23 14.5352 23.1543 14.6896 23.3448 14.6896Z" fill="white"/>
<path d="M23.3448 16.6897C25.4387 16.6921 27.1354 18.3889 27.1379 20.4827C27.1379 20.6732 27.2923 20.8276 27.4827 20.8276C27.6732 20.8276 27.8276 20.6732 27.8276 20.4827C27.8247 18.0082 25.8194 16.0029 23.3448 16C23.1544 16 23 16.1544 23 16.3448C23 16.5353 23.1544 16.6897 23.3448 16.6897Z" fill="white"/>
<path d="M23.3448 19.6896C24.2965 19.6908 25.0678 20.462 25.0689 21.4138C25.0689 21.6042 25.2233 21.7586 25.4138 21.7586C25.6042 21.7586 25.7586 21.6042 25.7586 21.4138C25.7571 20.0813 24.6773 19.0015 23.3448 19C23.1544 19 23 19.1544 23 19.3448C23 19.5353 23.1543 19.6896 23.3448 19.6896Z" fill="white"/>
</g>
<defs>
<clipPath id="clip0">
<rect x="12" y="12" width="20" height="20" fill="white"/>
</clipPath>
</defs>
</svg>
