<svg width="98" height="70" viewBox="0 0 98 70" fill="none" xmlns="http://www.w3.org/2000/svg">
<g clip-path="url(#clip0)">
<path d="M71.561 41.9915C70.4829 41.9915 69.6097 42.8606 69.6097 43.9337V46.2645C69.6097 47.3376 70.4829 48.2068 71.561 48.2068C72.639 48.2068 73.5122 47.3376 73.5122 46.2645V43.9337C73.5122 42.8606 72.639 41.9915 71.561 41.9915Z" fill="#182851"/>
<path d="M98 37.3524L89.3971 15.4559C89.0371 14.5401 88.1346 13.9283 87.1483 13.9283C87.1415 13.9283 87.1346 13.9283 87.1278 13.9283L65.7561 14.105V5.09668C65.7561 2.44156 63.5854 0.280762 60.918 0.280762H4.83805C2.17073 0.280762 0 2.44156 0 5.09668V55.4808C0 58.1368 2.17073 60.2976 4.83805 60.2976H9.70829C9.70732 60.3462 9.70634 60.3948 9.70634 60.4433C9.70634 65.3165 13.6888 69.2808 18.5844 69.2808C23.48 69.2808 27.4624 65.3165 27.4624 60.4433C27.4624 60.3948 27.4615 60.3462 27.4605 60.2976H60.9161C61.7122 60.2976 62.4634 60.1044 63.1268 59.7635H72.5863C72.5854 59.8121 72.5844 59.8606 72.5844 59.9092C72.5844 64.7824 76.5668 68.7466 81.4624 68.7466C86.358 68.7466 90.3405 64.7824 90.3405 59.9092C90.3405 59.8606 90.3395 59.8121 90.3385 59.7635H97.999V37.3524H98ZM18.5854 65.3962C15.842 65.3962 13.6098 63.1742 13.6098 60.4433C13.6098 60.3948 13.6117 60.3462 13.6137 60.2976C13.6605 58.6972 14.4732 57.2861 15.6985 56.4131C16.5132 55.8333 17.5093 55.4905 18.5854 55.4905C19.6615 55.4905 20.6576 55.8333 21.4722 56.4131C22.6985 57.2861 23.5102 58.6972 23.5571 60.2976C23.558 60.3462 23.561 60.3948 23.561 60.4433C23.561 63.1742 21.3288 65.3962 18.5854 65.3962ZM61.8537 55.4817C61.8537 55.9955 61.4341 56.4131 60.918 56.4131H26.4849C25.0107 53.5608 22.0234 51.6059 18.5854 51.6059C15.1473 51.6059 12.16 53.5608 10.6859 56.4131H4.83805C4.32195 56.4131 3.90244 55.9955 3.90244 55.4817V48.304H48.6341C49.7122 48.304 50.5854 47.4348 50.5854 46.3617C50.5854 45.2886 49.7122 44.4194 48.6341 44.4194H3.90244V5.09668C3.90244 4.58294 4.32195 4.16535 4.83805 4.16535H60.9171C61.4332 4.16535 61.8527 4.58294 61.8527 5.09668V55.4817H61.8537ZM88.9932 25.0936L93.2283 35.8733H74.4302C74.1395 35.8733 73.9024 35.6373 73.9024 35.3479V25.619C73.9024 25.3296 74.1395 25.0936 74.4302 25.0936H88.9932ZM85.7629 16.8709V16.8718C85.7629 16.8718 85.7629 16.8718 85.7629 16.8709ZM81.4634 64.862C78.72 64.862 76.4878 62.6401 76.4878 59.9092C76.4878 59.8606 76.4898 59.8121 76.4917 59.7635C76.5385 58.1631 77.3512 56.752 78.5766 55.8789C79.3912 55.2992 80.3873 54.9563 81.4634 54.9563C82.5395 54.9563 83.5356 55.2992 84.3502 55.8789C85.5766 56.752 86.3883 58.1631 86.4351 59.7635C86.4361 59.8121 86.439 59.8606 86.439 59.9092C86.439 62.6401 84.2068 64.862 81.4634 64.862ZM94.0976 42.6713H91.561C90.4829 42.6713 89.6098 43.5405 89.6098 44.6136C89.6098 45.6867 90.4829 46.5559 91.561 46.5559H94.0976V55.8789H89.3629C87.8888 53.0267 84.9015 51.0718 81.4634 51.0718C78.0254 51.0718 75.038 53.0267 73.5639 55.8789H65.9024V17.9877L86.1356 17.8206L87.4663 21.209H74.4302C71.9873 21.209 70 23.1872 70 25.619V35.3479C70 37.7797 71.9873 39.7579 74.4302 39.7579H94.0976V42.6713Z" fill="#182851"/>
<path d="M56.2439 48.4982C57.322 48.4982 58.1952 47.629 58.1952 46.5559V46.2646C58.1952 45.1914 57.322 44.3223 56.2439 44.3223C55.1659 44.3223 54.2927 45.1914 54.2927 46.2646V46.5559C54.2927 47.629 55.1659 48.4982 56.2439 48.4982Z" fill="#182851"/>
</g>
<defs>
<clipPath id="clip0">
<rect y="0.280762" width="98" height="69" fill="white"/>
</clipPath>
</defs>
</svg>
