<svg version="1.1"
     xmlns="http://www.w3.org/2000/svg"
     display="none">

    <symbol id="cart" viewBox="0 0 34 30" fill="none">
        <path
                d="M32.5769 0.585938H28.6502C28.6131 0.585938 28.5816 0.603262 28.5455 0.607065C28.4702 0.614755 28.3998 0.627263 28.3292 0.650757C28.2702 0.670279 28.2168 0.694364 28.163 0.723605C28.1011 0.757324 28.0452 0.793917 27.9912 0.839468C27.9415 0.881216 27.8993 0.925669 27.8583 0.975783C27.8159 1.02742 27.7798 1.07998 27.7476 1.13982C27.7144 1.20126 27.6911 1.2643 27.6707 1.33242C27.6597 1.36935 27.6358 1.39901 27.6287 1.4378L27.034 4.68798L1.62114 6.17308C1.52378 6.16632 1.43792 6.18051 1.32907 6.19066C0.764541 6.24204 0.345371 6.73693 0.387288 7.30213C0.390668 7.34473 0.396077 7.38597 0.40419 7.42653L2.17485 17.0837C2.57982 18.5812 3.82719 20.0929 5.70332 20.0929H24.215L23.8187 22.2591H8.24201C6.26988 22.2591 4.66486 23.8641 4.66486 25.8362C4.66486 27.809 6.26988 29.4141 8.24201 29.4141C10.2141 29.4141 11.8192 27.809 11.8192 25.8362C11.8192 25.2988 11.6915 24.7938 11.4782 24.336H21.0432C20.8299 24.7938 20.7022 25.2988 20.7022 25.8362C20.7022 27.809 22.3072 29.4141 24.2793 29.4141C26.2515 29.4141 27.8565 27.809 27.8565 25.8362C27.8565 24.434 27.0376 23.2297 25.8597 22.6436L29.5159 2.66286H32.5769C33.1502 2.66286 33.6154 2.19772 33.6154 1.6244C33.6154 1.05108 33.1502 0.585938 32.5769 0.585938ZM25.3383 13.9544L20.9376 14.0235L21.1773 11.4731L25.8178 11.334L25.3383 13.9544ZM3.3536 12.0075L7.75109 11.8757L8.03876 14.226L3.77201 14.293L3.3536 12.0075ZM9.14027 11.834L13.9738 11.6891V14.1328L9.43047 14.2042L9.14027 11.834ZM13.9738 10.3033L8.97124 10.4533L8.65163 7.84275L13.9738 7.53158V10.3033ZM15.3584 7.45062L20.1911 7.16802L19.9132 10.1252L15.3584 10.2618V7.45062ZM13.9738 15.5177V18.016H9.89714L9.59966 15.5864L13.9738 15.5177ZM15.3584 15.496L19.4145 15.4324L19.1717 18.016H15.3584V15.496ZM15.3584 14.111V11.6476L19.7826 11.515L19.5448 14.0453L15.3584 14.111ZM26.0727 9.94054L21.3079 10.0834L21.5895 7.08629L26.6492 6.79042L26.0727 9.94054ZM7.26718 7.92371L7.58198 10.4948L3.10116 10.6292C2.91237 9.60343 2.76203 8.80625 2.63391 8.19456L7.26718 7.92371ZM4.19904 16.626L4.02478 15.674L8.20803 15.6083L8.5028 18.016H5.70332C4.8136 18.016 4.31803 17.0519 4.19904 16.626ZM20.5625 18.016L20.8073 15.4105L25.0841 15.3433L24.5951 18.016H20.5625ZM9.74223 25.8362C9.74223 26.6638 9.06953 27.3371 8.24201 27.3371C7.41448 27.3371 6.74178 26.6638 6.74178 25.8362C6.74178 25.0087 7.41448 24.336 8.24201 24.336C9.06953 24.336 9.74223 25.0087 9.74223 25.8362ZM24.2793 27.3371C23.4518 27.3371 22.7791 26.6638 22.7791 25.8362C22.7791 25.0087 23.4518 24.336 24.2793 24.336C25.1069 24.336 25.7796 25.0087 25.7796 25.8362C25.7796 26.6638 25.1069 27.3371 24.2793 27.3371Z" fill="currentColor"/>
    </symbol>

    <symbol id="vk" viewBox="0 0 36 22" fill="none" >
        <path
                d="M29.2868 21.4941C28.8865 21.4941 28.0752 21.3969 27.13 20.7416C26.4165 20.2436 25.7272 19.4464 25.0604 18.6739C24.0475 17.5006 23.0782 16.4135 22.2985 16.6649C21.2359 17.0087 20.983 19.0224 20.9981 20.0401C20.9966 20.1403 20.974 20.5427 20.7091 20.8326C20.5104 21.0361 20.244 21.1163 19.7413 21.1317L17.5092 21.1364C17.5107 21.1379 17.4023 21.1441 17.2232 21.1441C16.0929 21.1441 12.1298 20.8542 8.60332 17.1336C4.05934 12.3429 0.0406385 2.87718 0 2.78159L0.103854 1.80248C0.11138 1.79785 0.118905 1.79169 0.124926 1.78706L0.358221 1.66834C0.651721 1.56349 0.993386 1.55578 1.07767 1.55578L6.11986 1.5234C6.25833 1.53727 6.72492 1.6267 7.05154 1.86107C7.34052 2.08311 7.50157 2.45933 7.5091 2.47629C7.52565 2.51792 8.34896 4.63032 9.45372 6.54999C11.4345 10.0208 12.4866 11.1988 13.3415 10.7347C13.8728 10.4417 14.3138 8.6886 14.0925 5.44136C14.0986 4.7768 13.9962 3.46465 13.5537 2.86639C13.2768 2.48246 12.8674 2.25888 12.5739 2.13861L11.5925 1.73772L12.3887 1.02845C12.5046 0.92514 12.6265 0.840335 12.75 0.777117C13.4288 0.442525 14.4718 0 15.7497 0H17.5152C18.4153 0 18.9014 0.21124 19.2913 0.380849C19.4689 0.456402 19.6239 0.524245 19.7895 0.565877C21.1682 0.898927 21.1185 2.21263 21.0282 4.5964C21.0011 5.30568 20.9695 6.11363 20.9695 7.0249C20.9695 7.22997 20.9635 7.44892 20.9574 7.67249C20.9258 8.82429 20.8867 10.2336 21.6603 10.7409C22.0938 11.0169 23.0511 10.7224 25.4382 6.61167C26.5761 4.6442 27.4099 2.40536 27.4175 2.38378C27.44 2.32981 27.6237 1.92121 27.9006 1.74389C28.0842 1.62825 28.304 1.60512 28.4575 1.60512L28.6592 1.61591L34.1047 1.57274C34.1017 1.5712 34.2703 1.55423 34.4961 1.55423C35.2667 1.55423 35.6084 1.74389 35.6957 1.80094L35.8718 1.91812L35.9485 2.12011C36.2405 2.91265 35.2893 4.79839 33.1159 7.72646C32.6493 8.35247 32.2399 8.89368 31.8817 9.36396C29.4494 12.5557 29.4494 12.5557 32.0864 15.0335C34.3832 17.1891 35.3164 18.5306 35.6942 19.2753C36.0057 19.7903 36.0825 20.2575 35.9034 20.6229C35.5587 21.3075 34.4419 21.3985 34.3952 21.4031L29.4419 21.4864C29.4494 21.4879 29.3832 21.4941 29.2868 21.4941ZM22.5469 15.3049C23.8744 15.3049 24.8723 16.4598 26.0282 17.7966C26.6423 18.509 27.2775 19.2429 27.857 19.6453C28.5598 20.1326 29.1303 20.1727 29.2883 20.1727V20.8326L29.341 20.1696L34.338 20.0832C34.4208 20.0755 34.5292 20.0493 34.624 20.0169C34.6105 19.9876 34.5924 19.9583 34.5728 19.9229C34.2808 19.3508 33.4861 18.1389 31.2164 16.0049C28.0616 13.0429 28.0255 12.2751 30.8657 8.54983C31.2239 8.08264 31.6303 7.5476 32.0909 6.92621C33.8007 4.62107 34.3967 3.42918 34.6045 2.87564C34.4359 2.87102 34.2282 2.88489 34.1966 2.88798L28.6261 2.93423L28.5644 2.93115C28.4424 3.32434 27.6252 5.41824 26.5475 7.28548C24.0746 11.538 22.8554 12.1255 21.9042 12.127C21.5655 12.127 21.2524 12.0345 20.9725 11.8557C19.5787 10.9398 19.6299 9.04016 19.6675 7.65245C19.6751 7.4227 19.6811 7.21609 19.6811 7.02181C19.6811 6.0905 19.7127 5.26559 19.7398 4.54089C19.8316 2.16791 19.7383 1.90733 19.4929 1.84874C19.2596 1.79015 19.0354 1.70226 18.7916 1.59587C18.4484 1.4463 18.1549 1.31832 17.5152 1.31832H15.7497C15.1597 1.31832 14.6208 1.44322 14.1648 1.60203C14.3153 1.73772 14.4583 1.89499 14.5862 2.07385C15.3689 3.1316 15.3854 5.03276 15.3809 5.40282C15.6293 9.03245 15.1476 11.2343 13.9511 11.8958C13.6455 12.0623 13.3234 12.1471 12.9908 12.1471C11.6181 12.1471 10.4441 10.9012 8.34294 7.21455C7.16894 5.1777 6.32606 2.99591 6.31703 2.97432C6.26285 2.90956 6.09578 2.85097 6.00848 2.83401L1.45396 2.87256C2.42175 5.03584 5.82786 12.3136 9.52747 16.2162C12.7033 19.5636 16.2208 19.8242 17.2232 19.8242C17.3587 19.8242 17.443 19.818 17.464 19.8165L19.7097 19.8134C19.7247 18.8682 19.94 16.0404 21.9102 15.4067C22.1134 15.3388 22.3286 15.3049 22.5469 15.3049Z" fill="currentColor"/>
    </symbol>

    <symbol id="instagram" viewBox="0 0 36 36" fill="none">
        <path
                d="M18.3982 14.0872C20.6729 14.0985 22.5101 15.9547 22.4988 18.2306L24.1424 18.2385C24.1582 15.0559 21.5898 12.4616 18.4061 12.4459L18.3982 14.0872Z" stroke="currentColor" stroke-width="0.5" stroke-miterlimit="10"/>
        <path d="M27.3644 4.37064C29.8507 4.37064 31.8644 6.38551 31.8644 8.87064V26.6985C31.8644 29.1836 29.8507 31.1985 27.3644 31.1985H9.53882C7.05257 31.1985 5.03882 29.1836 5.03882 26.6985V8.87064C5.03882 6.38551 7.05257 4.37064 9.53882 4.37064H27.3644ZM27.3644 3.24564H9.53882C6.43719 3.24564 3.91382 5.76901 3.91382 8.87064V26.6985C3.91382 29.8001 6.43719 32.3235 9.53882 32.3235H27.3656C30.4672 32.3235 32.9906 29.8001 32.9906 26.6985V8.87064C32.9894 5.76901 30.4661 3.24564 27.3644 3.24564Z" fill="currentColor"/>
        <path d="M18.6941 24.3484C22.3189 24.3484 25.2574 21.4099 25.2574 17.7851C25.2574 14.1603 22.3189 11.2219 18.6941 11.2219C15.0693 11.2219 12.1309 14.1603 12.1309 17.7851C12.1309 21.4099 15.0693 24.3484 18.6941 24.3484Z" stroke="currentColor" stroke-width="0.5" stroke-miterlimit="10"/>
        <path d="M18.6941 25.9515C23.2043 25.9515 26.8605 22.2953 26.8605 17.7851C26.8605 13.275 23.2043 9.61874 18.6941 9.61874C14.1839 9.61874 10.5277 13.275 10.5277 17.7851C10.5277 22.2953 14.1839 25.9515 18.6941 25.9515Z" stroke="currentColor" stroke-width="0.5" stroke-miterlimit="10"/>
        <path d="M5.03882 13.8442H11.5424" stroke="currentColor" stroke-width="0.5" stroke-miterlimit="10"/>
        <path d="M25.8457 13.8442H32.3516" stroke="currentColor" stroke-width="0.5" stroke-miterlimit="10"/>
        <path d="M29.7878 10.2116C29.7878 10.6133 29.4615 10.9395 29.0588 10.9395H26.1709C25.7681 10.9395 25.4419 10.6133 25.4419 10.2116V7.32263C25.4419 6.91988 25.7681 6.59363 26.1709 6.59363H29.0588C29.4615 6.59363 29.7878 6.91988 29.7878 7.32263V10.2116Z" stroke="currentColor" stroke-width="0.5" stroke-miterlimit="10"/>
    </symbol>

    <symbol id="arrow-down" viewBox="0 0 11 7" fill="none">
        <path
                d="M9.61914 0.6875L10.1875 1.29395L5.5 6.3125L0.8125 1.29395L1.37793 0.6875L5.5 5.09668L9.61914 0.6875Z" fill="currentColor"/>
    </symbol>

    <symbol id="check-icon" viewBox="0 0 13 10" fill="none">
        <path
                d="M4.39318 9.41419C4.28606 9.41385 4.18015 9.39147 4.08204 9.34847C3.98393 9.30546 3.89571 9.24273 3.82287 9.16419L0.174433 5.25794C0.0497699 5.1042 -0.0118936 4.90888 0.00190098 4.71143C0.0156956 4.51398 0.10392 4.32913 0.248748 4.19422C0.393577 4.05931 0.584214 3.98441 0.782143 3.98463C0.980072 3.98486 1.17054 4.0602 1.31506 4.19544L4.39318 7.4845L11.1119 0.28919C11.1794 0.205997 11.2632 0.137564 11.3583 0.0881418C11.4533 0.0387196 11.5575 0.00936462 11.6643 0.0018998C11.7711 -0.00556502 11.8784 0.0090198 11.9794 0.0447488C12.0803 0.0804779 12.1729 0.136587 12.2513 0.209592C12.3296 0.282597 12.3922 0.370937 12.4349 0.469125C12.4777 0.567313 12.4999 0.673252 12.5 0.780359C12.5001 0.887466 12.4782 0.993454 12.4357 1.09174C12.3931 1.19002 12.3308 1.27851 12.2526 1.35169L4.96349 9.16419C4.89065 9.24273 4.80243 9.30546 4.70432 9.34847C4.60621 9.39147 4.5003 9.41385 4.39318 9.41419Z" fill="currentColor"/>
    </symbol>

    <symbol id="arrow-right" viewBox="0 0 8 14" fill="none" >
        <path d="M0.25 1.50781L1.05859 0.75L7.75 7L1.05859 13.25L0.25 12.4961L6.12891 7L0.25 1.50781Z"
              fill="currentColor"/>
    </symbol>



</svg>