<svg version="1.1"
     xmlns="http://www.w3.org/2000/svg"
     display="none">

    <symbol id="phone" viewBox="0 0 23 24" fill="none">
        <g clip-path="url(#clip0)">
            <path d="M14.3913 15.1069L14.62 14.9673C15.2262 14.6324 15.4277 14.7725 15.7609 15.3495L17.5645 18.4342C18.1025 19.3531 18.4147 19.5802 17.5792 20.0927L17.3505 20.2323L14.3913 15.1069ZM13.863 15.4722L16.7373 20.4506C15.7311 20.8504 13.0813 21.7089 11.6063 20.539C10.7449 19.8274 10.0026 18.9827 9.40752 18.037C7.96702 15.8817 6.50744 13.2622 5.42562 11.2316C4.91486 9.8897 4.55203 9.74466 4.35825 8.07641C4.15507 6.30043 6.20448 4.36291 7.03667 3.64861L9.91092 8.62696L8.18319 9.29258C7.69141 9.48599 7.9498 10.3777 8.34175 11.0566C9.03004 12.2357 10.419 14.6546 11.0172 15.5991C11.4026 16.2667 12.0433 16.9452 12.4656 16.6184L13.863 15.4722ZM7.52989 3.23561L7.7675 3.09843C8.59042 2.66858 8.63994 3.05485 9.16014 3.96893L10.9322 7.0643C11.2475 7.63655 11.2883 7.87702 10.7267 8.22388L10.4915 8.35213L7.52989 3.23561Z" fill="#CC5E7B"/>
        </g>
        <defs>
            <clipPath id="clip0">
                <rect x="22.6289" y="5.77982" width="18" height="18" transform="rotate(105 22.6289 5.77982)" fill="white"/>
            </clipPath>
        </defs>
    </symbol>

    <symbol id="user" viewBox="0 0 27 27" fill="none">
        <path d="M13.0276 14.1244C9.17299 14.1244 6.0376 10.9566 6.0376 7.06219C6.0376 3.16778 9.17299 0 13.0276 0C16.8822 0 20.0176 3.16778 20.0176 7.06219C20.0176 10.9566 16.8813 14.1244 13.0276 14.1244ZM13.0276 1.53156C10.0093 1.53156 7.5535 4.01269 7.5535 7.06219C7.5535 10.1117 10.0093 12.5928 13.0276 12.5928C16.0459 12.5928 18.5017 10.1117 18.5017 7.06219C18.5017 4.01269 16.0459 1.53156 13.0276 1.53156Z" fill="#182851"/>
        <path d="M0 26.5062V21.9337C0 18.4017 2.844 15.5283 6.33983 15.5283H19.7673C23.2632 15.5283 26.1072 18.4017 26.1072 21.9337V26.4611L0 26.5062ZM6.33983 17.0599C3.67943 17.0599 1.5159 19.2458 1.5159 21.9337V24.9721L24.5913 24.9321V21.9337C24.5913 19.2466 22.4277 17.0599 19.7673 17.0599H6.33983Z" fill="#182851"/>
    </symbol>

    <symbol id="compare" viewBox="1 -27 511.99996 511" fill="currentColor">
        <path
                d="m511.996094 280.402344c-.003906-.4375-.023438-.878906-.066406-1.316406-.007813-.101563-.023438-.195313-.03125-.296876-.046876-.398437-.105469-.792968-.183594-1.191406-.015625-.085937-.035156-.171875-.054688-.261718-.078125-.355469-.171875-.710938-.273437-1.0625-.039063-.136719-.082031-.277344-.125-.414063-.113281-.347656-.238281-.695313-.378907-1.039063l-.035156-.089843c-.015625-.039063-.03125-.074219-.046875-.109375l-89.917969-219.800782c-.003906-.015624-.011718-.03125-.019531-.042968-.066406-.164063-.140625-.316406-.214843-.476563-.113282-.246093-.226563-.492187-.351563-.730469-.082031-.15625-.167969-.308593-.253906-.460937-.144531-.253906-.296875-.5-.453125-.746094-.074219-.117187-.152344-.238281-.230469-.355469-.246094-.359374-.503906-.707031-.777344-1.039062-.015625-.019531-.03125-.035156-.046875-.054688-.265625-.316406-.542968-.621093-.832031-.914062-.089844-.089844-.179687-.175781-.269531-.265625-.230469-.222656-.464844-.433594-.707032-.640625-.105468-.089844-.207031-.179688-.3125-.261719-.289062-.234375-.585937-.457031-.890624-.667969-.054688-.039062-.109376-.082031-.167969-.121093-.34375-.230469-.699219-.441407-1.058594-.644531-.148437-.082032-.296875-.15625-.445313-.230469-.238281-.121094-.480468-.238281-.722656-.347657-.164062-.074218-.328125-.148437-.496094-.214843-.285156-.117188-.578124-.21875-.871093-.320313-.148438-.046875-.292969-.101562-.441407-.144531-.371093-.113281-.75-.210937-1.132812-.292969-.152344-.03125-.308594-.058594-.464844-.085937-.304687-.058594-.609375-.105469-.921875-.144531-.144531-.015626-.289062-.035157-.433593-.046876-.453126-.042968-.90625-.070312-1.363282-.070312h-92.902344c-6.675781-25.847656-30.195312-45-58.097656-45-27.90625 0-51.425781 19.152344-58.101562 45h-92.898438c-.460937 0-.914062.027344-1.367187.070312-.148438.011719-.292969.03125-.4375.046876-.308594.039062-.617188.085937-.921875.140624-.15625.03125-.308594.054688-.464844.089844-.378906.082032-.757812.179688-1.128906.289063-.152344.046875-.296875.097656-.445313.148437-.292969.097656-.582031.203125-.867187.316406-.167969.070313-.332032.140626-.496094.214844-.246094.109375-.484375.226563-.722656.347656-.148438.078126-.300782.152344-.445313.234376-.363281.203124-.71875.414062-1.0625.644531-.054687.039062-.109375.082031-.167969.121093-.304687.210938-.601562.433594-.890624.664063-.105469.085937-.207032.175781-.308594.261719-.242188.207031-.476563.421875-.707032.644531-.089843.085937-.183593.171875-.269531.261719-.289062.296875-.566406.597656-.832031.917968-.015625.015626-.03125.035157-.046875.050782-.273437.335937-.53125.683594-.777344 1.042968-.082031.113282-.15625.234376-.234375.355469-.15625.242188-.308594.492188-.449218.742188-.089844.152343-.171876.304687-.253907.460937-.125.242188-.242187.488282-.355469.734375-.070312.15625-.148437.3125-.214843.472657-.003907.015624-.011719.03125-.019531.046874l-89.917969 219.796876c-.015625.039062-.027344.074218-.042969.109374l-.039062.09375c-.140626.339844-.261719.691407-.375 1.039063-.046876.136719-.085938.277344-.128907.414063-.101562.351562-.195312.707031-.269531 1.0625-.019531.085937-.039062.175781-.058594.261718-.074218.394532-.132812.792969-.179687 1.191406-.011719.097657-.0234378.195313-.0351565.292969-.0390625.441407-.0625.882813-.06640625 1.320313 0 .035156-.00390625.066406-.00390625.097656 0 52.382812 47.101562 95 105 95s105-42.617188 105-95c0-.035156-.003906-.066406-.003906-.097656-.003906-.4375-.027344-.878906-.066406-1.320313-.011719-.097656-.023438-.195312-.035157-.292969-.046875-.398437-.105469-.796874-.179687-1.191406-.019532-.085937-.039063-.175781-.058594-.261718-.074219-.355469-.167969-.710938-.269531-1.0625-.042969-.136719-.082031-.277344-.128907-.414063-.113281-.347656-.234374-.695313-.375-1.039063l-.039062-.09375c-.015625-.035156-.027344-.070312-.042969-.109374l-81.457031-199.117188h70.554688c5.441406 21.054688 22.050781 37.664062 43.101562 43.101562v308.898438h-55c-8.28125 0-15 6.714844-15 15s6.71875 15 15 15h140c8.285156 0 15-6.714844 15-15s-6.714844-15-15-15h-55v-308.898438c21.054688-5.441406 37.664062-22.046874 43.101562-43.101562h70.554688l-81.457031 199.121094c-.015625.035156-.027344.074218-.046875.109375l-.035156.089843c-.140626.34375-.261719.691407-.378907 1.042969-.042969.136719-.082031.273438-.125.410157-.101562.355468-.195312.707031-.273437 1.066406-.019532.085937-.035156.171875-.054688.261718-.078125.394532-.136718.792969-.179687 1.191407-.011719.097656-.027344.195312-.035157.292969-.042968.4375-.0625.878906-.066406 1.320312 0 .03125-.003906.0625-.003906.09375 0 52.382812 47.101562 95 105 95 57.894531 0 105-42.617188 105-95 .003906-.03125-.003906-.0625-.003906-.097656zm-406.992188 65.097656c-35.402344 0-65.152344-21.363281-72.984375-50h145.96875c-7.835937 28.636719-37.585937 50-72.984375 50zm-67.660156-80 67.660156-165.382812 67.65625 165.382812zm218.660156-175c-16.542968 0-30-13.457031-30-30s13.457032-30 30-30c16.539063 0 30 13.457031 30 30s-13.460937 30-30 30zm151 9.617188 67.65625 165.382812h-135.316406zm0 245.382812c-35.402344 0-65.152344-21.363281-72.984375-50h145.96875c-7.835937 28.636719-37.585937 50-72.984375 50zm0 0" />
    </symbol>

    <symbol id="cart" viewBox="0 0 41 39" fill="none">
        <g clip-path="url(#clip0)">
            <path
                    d="M12.3 25.35H30.75C31.2937 25.35 31.8152 25.5554 32.1996 25.9211C32.5841 26.2868 32.8 26.7828 32.8 27.3C32.8 27.8172 32.5841 28.3132 32.1996 28.6788C31.8152 29.0445 31.2937 29.25 30.75 29.25H10.25C9.70635 29.25 9.18493 29.0445 8.80048 28.6788C8.41603 28.3132 8.20005 27.8172 8.20005 27.3V7.79999H4.10005C3.55635 7.79999 3.03493 7.59455 2.65048 7.22885C2.26603 6.86316 2.05005 6.36717 2.05005 5.84999C2.05005 5.33282 2.26603 4.83683 2.65048 4.47114C3.03493 4.10544 3.55635 3.89999 4.10005 3.89999H10.25C10.7937 3.89999 11.3152 4.10544 11.6996 4.47114C12.0841 4.83683 12.3 5.33282 12.3 5.84999V9.74999H38.95L30.75 23.4H12.3V25.35ZM11.275 31.2C11.8832 31.2 12.4777 31.3715 12.9834 31.6929C13.4891 32.0143 13.8832 32.4712 14.116 33.0056C14.3487 33.5401 14.4096 34.1282 14.291 34.6956C14.1723 35.263 13.8794 35.7842 13.4494 36.1933C13.0194 36.6023 12.4714 36.8809 11.875 36.9938C11.2785 37.1066 10.6602 37.0487 10.0983 36.8273C9.53641 36.606 9.05616 36.231 8.71828 35.75C8.38039 35.269 8.20005 34.7035 8.20005 34.125C8.20005 33.3492 8.52402 32.6052 9.10069 32.0567C9.67737 31.5082 10.4595 31.2 11.275 31.2V31.2ZM29.725 31.2C30.3332 31.2 30.9277 31.3715 31.4334 31.6929C31.9391 32.0143 32.3332 32.4712 32.566 33.0056C32.7987 33.5401 32.8596 34.1282 32.741 34.6956C32.6223 35.263 32.3294 35.7842 31.8994 36.1933C31.4694 36.6023 30.9214 36.8809 30.3249 36.9938C29.7285 37.1066 29.1102 37.0487 28.5483 36.8273C27.9864 36.606 27.5062 36.231 27.1683 35.75C26.8304 35.269 26.65 34.7035 26.65 34.125C26.65 33.3492 26.974 32.6052 27.5507 32.0567C28.1274 31.5082 28.9095 31.2 29.725 31.2V31.2Z" stroke="currentColor" stroke-width="3"/>
        </g>
        <defs>
            <clipPath id="clip0">
                <rect width="41" height="39" fill="white"/>
            </clipPath>
        </defs>
    </symbol>

    <symbol id="hamb-menu" viewBox="0 0 16 15" fill="none">
        <path d="M10.1891 2.47827L10.1891 0.478271L0.739136 0.478271L0.739136 2.47827L10.1891 2.47827ZM15.4391 6.47827L15.4391 4.47827L0.739136 4.47827L0.739136 6.47827L15.4391 6.47827ZM10.1891 10.4783L10.1891 8.47827L0.739136 8.47827L0.739136 10.4783L10.1891 10.4783ZM15.4391 14.4783L15.4391 12.4783L0.739136 12.4783L0.739136 14.4783L15.4391 14.4783Z" fill="white"/>
    </symbol>

    <symbol id="fire" viewBox="0 0 14 20" fill="none">
        <g clip-path="url(#clip0)">
            <path d="M7.58442 0C7.58442 0 3.83212 1.83276 4.14388 6.03665C4.45565 10.2405 4.82308 8.5 4 11.5C4 11.5 4.40532 8.5 1.9838 6.90722C1.9838 6.90722 2.6296 9.61054 1.31573 11.4891C0.00186896 13.3677 -0.476912 15.2692 0.569725 17.2509C1.61636 19.2325 5.56909 20 5.56909 20C5.56909 20 3.26426 18.9805 4.04367 17.1821C4.82308 15.3837 5.09031 13.9977 4.82308 13.3677C4.82308 13.3677 5.94766 13.8373 5.81405 15.315C5.81405 15.315 8.28589 13.4708 7.27266 10.7789C7.27266 10.7789 8.90942 11.6151 8.63106 13.425C8.3527 15.2348 7.97413 15.2463 8.90942 16.6552C8.90942 16.6552 8.51972 14.4903 9.62203 14.0664C9.62203 14.0664 9.52182 15.1546 9.78904 15.7617C10.0563 16.3688 10.8023 16.7125 10.6353 17.8694C10.4682 19.0263 9.62203 19.6449 9.62203 19.6449C9.62203 19.6449 12.7842 18.9003 13.6972 16.4605C14.6103 14.0206 13.1628 11.1455 13.1628 11.1455C13.1628 11.1455 12.0827 8.71707 12.1607 7.06758C12.2386 5.4181 12.6729 5.37228 12.6729 5.37228C12.6729 5.37228 10.1787 5.15464 9.86698 9.42726C9.86698 9.42726 4.90102 5.60137 7.58442 0Z" fill="#D24343"/>
        </g>
        <defs>
            <clipPath id="clip0">
                <rect width="14" height="20" fill="white"/>
            </clipPath>
        </defs>
    </symbol>

    <symbol id="like" viewBox="0 0 40 39" stroke="currentColor" stroke-width="3.5">
        <path d="M33.3429 10.1668L33.3521 10.1785L33.3614 10.1901C34.9559 12.1538 34.9884 15.9378 32.5536 20.4183C29.7094 25.3336 25.304 29.2193 19.9988 31.4912C14.6978 29.2282 10.3028 25.3384 7.48534 20.4166C5.01066 15.9375 5.04522 12.1524 6.63856 10.1901L6.64794 10.1785L6.65713 10.1668C7.35243 9.2801 8.26074 8.56642 9.30726 8.09043C10.3537 7.61447 11.5051 7.39145 12.6624 7.44227C14.9584 7.54528 17.1445 8.40502 18.8641 9.87226L20 10.8414L21.1359 9.87226C22.8555 8.40501 25.0416 7.54526 27.3377 7.44227C28.495 7.39145 29.6463 7.61447 30.6927 8.09043C31.7393 8.56642 32.6476 9.2801 33.3429 10.1668Z"/>
    </symbol>

    <symbol id="hamb-quick" viewBox="0 0 14 12" fill="none"    >
        <path d="M0.599976 0.399902H13.4V1.9999H0.599976V0.399902ZM0.599976 3.5999H13.4V5.1999H0.599976V3.5999ZM0.599976 6.7999H13.4V8.3999H0.599976V6.7999ZM0.599976 9.9999H13.4V11.5999H0.599976V9.9999Z" fill="#F0F0F0"/>
    </symbol>

    <symbol id="caret" viewBox="0 0 8 8" fill="currentColor">
        <path d="M0.411865 0.442688L7.48828 4.12394L0.411865 7.75038L0.411865 0.442688Z"/>
    </symbol>

</svg>