<svg width="50" height="50" viewBox="0 0 50 50" fill="none" xmlns="http://www.w3.org/2000/svg">
<path d="M41.295 0H30.8333H19.1667H8.705L0 13.9275V50H19.1667H30.8333H50V13.9275L41.295 0ZM40.3717 1.66667L47.6633 13.3333H30.8333V1.66667H40.3717ZM25 1.66667H29.1667V13.3333H25H20.8333V1.66667H25ZM20.8333 15H21.6667C21.6667 15.46 22.04 15.8333 22.5 15.8333C22.96 15.8333 23.3333 15.46 23.3333 15H26.6667C26.6667 15.46 27.04 15.8333 27.5 15.8333C27.96 15.8333 28.3333 15.46 28.3333 15H29.1667V17.9883L28.3333 17.155L25 20.4883L21.6667 17.155L20.8333 17.9883V15ZM9.62833 1.66667H19.1667V13.3333H2.33667L9.62833 1.66667ZM20.8333 48.3333V46.1783L21.6667 47.0117L25 43.6783L28.3333 47.0117L29.1667 46.1783V48.3333H20.8333ZM30.8333 48.3333V42.155L28.3333 44.655L25 41.3217L21.6667 44.655L19.1667 42.155V48.3333H1.66667V15H19.1667V22.0117L21.6667 19.5117L25 22.845L28.3333 19.5117L30.8333 22.0117V15H48.3333V48.3333H30.8333Z" fill="#3B065B"/>
<path d="M16.6666 40H33.3333V25H16.6666V40ZM18.3333 26.6667H31.6666V38.3333H18.3333V26.6667Z" fill="#3B065B"/>
<path d="M25.8333 35H20.8333C20.3733 35 20 35.3725 20 35.8333C20 36.2942 20.3733 36.6667 20.8333 36.6667H25.8333C26.2933 36.6667 26.6667 36.2942 26.6667 35.8333C26.6667 35.3725 26.2933 35 25.8333 35Z" fill="#3B065B"/>
<path d="M29.1667 35H28.3333C27.8733 35 27.5 35.3725 27.5 35.8333C27.5 36.2942 27.8733 36.6667 28.3333 36.6667H29.1667C29.6267 36.6667 30 36.2942 30 35.8333C30 35.3725 29.6267 35 29.1667 35Z" fill="#3B065B"/>
<path d="M29.1667 28.3333H24.1667C23.7067 28.3333 23.3334 28.7058 23.3334 29.1666C23.3334 29.6274 23.7067 29.9999 24.1667 29.9999H29.1667C29.6267 29.9999 30 29.6274 30 29.1666C30 28.7058 29.6267 28.3333 29.1667 28.3333Z" fill="#3B065B"/>
<path d="M29.1666 31.6667H27.5C27.04 31.6667 26.6666 32.0392 26.6666 32.5001C26.6666 32.9609 27.04 33.3334 27.5 33.3334H29.1666C29.6266 33.3334 30 32.9609 30 32.5001C30 32.0392 29.6266 31.6667 29.1666 31.6667Z" fill="#3B065B"/>
<path d="M20.8333 33.3334H22.5C22.96 33.3334 23.3333 32.9609 23.3333 32.5001C23.3333 32.0392 22.96 31.6667 22.5 31.6667H20.8333C20.3733 31.6667 20 32.0392 20 32.5001C20 32.9609 20.3733 33.3334 20.8333 33.3334Z" fill="#3B065B"/>
<path d="M20.8333 29.9999H21.6667C22.1267 29.9999 22.5 29.6274 22.5 29.1666C22.5 28.7058 22.1267 28.3333 21.6667 28.3333H20.8333C20.3733 28.3333 20 28.7058 20 29.1666C20 29.6274 20.3733 29.9999 20.8333 29.9999Z" fill="#3B065B"/>
<path d="M25.5917 33.0918C25.7417 32.9335 25.8334 32.7168 25.8334 32.5002C25.8334 32.2835 25.7417 32.066 25.5917 31.9085C25.2751 31.6002 24.7167 31.6002 24.4084 31.9085C24.2584 32.066 24.1667 32.2743 24.1667 32.5002C24.1667 32.7252 24.2584 32.9335 24.4084 33.0918C24.5667 33.2418 24.7834 33.3335 25.0001 33.3335C25.2167 33.3335 25.4334 33.2418 25.5917 33.0918Z" fill="#3B065B"/>
<path d="M25.0001 3.33317C25.4603 3.33317 25.8334 2.96007 25.8334 2.49984C25.8334 2.0396 25.4603 1.6665 25.0001 1.6665C24.5398 1.6665 24.1667 2.0396 24.1667 2.49984C24.1667 2.96007 24.5398 3.33317 25.0001 3.33317Z" fill="#3B065B"/>
<path d="M22.5 5.83341C22.9602 5.83341 23.3333 5.46032 23.3333 5.00008C23.3333 4.53984 22.9602 4.16675 22.5 4.16675C22.0397 4.16675 21.6666 4.53984 21.6666 5.00008C21.6666 5.46032 22.0397 5.83341 22.5 5.83341Z" fill="#3B065B"/>
<path d="M22.5 10.8334C22.9602 10.8334 23.3333 10.4603 23.3333 10.0001C23.3333 9.53984 22.9602 9.16675 22.5 9.16675C22.0397 9.16675 21.6666 9.53984 21.6666 10.0001C21.6666 10.4603 22.0397 10.8334 22.5 10.8334Z" fill="#3B065B"/>
<path d="M25.0001 8.33341C25.4603 8.33341 25.8334 7.96032 25.8334 7.50008C25.8334 7.03984 25.4603 6.66675 25.0001 6.66675C24.5398 6.66675 24.1667 7.03984 24.1667 7.50008C24.1667 7.96032 24.5398 8.33341 25.0001 8.33341Z" fill="#3B065B"/>
<path d="M27.5 5.83341C27.9602 5.83341 28.3333 5.46032 28.3333 5.00008C28.3333 4.53984 27.9602 4.16675 27.5 4.16675C27.0397 4.16675 26.6666 4.53984 26.6666 5.00008C26.6666 5.46032 27.0397 5.83341 27.5 5.83341Z" fill="#3B065B"/>
<path d="M27.5 10.8334C27.9602 10.8334 28.3333 10.4603 28.3333 10.0001C28.3333 9.53984 27.9602 9.16675 27.5 9.16675C27.0397 9.16675 26.6666 9.53984 26.6666 10.0001C26.6666 10.4603 27.0397 10.8334 27.5 10.8334Z" fill="#3B065B"/>
<path d="M25.0001 13.3334C25.4603 13.3334 25.8334 12.9603 25.8334 12.5001C25.8334 12.0398 25.4603 11.6667 25.0001 11.6667C24.5398 11.6667 24.1667 12.0398 24.1667 12.5001C24.1667 12.9603 24.5398 13.3334 25.0001 13.3334Z" fill="#3B065B"/>
<path d="M25.0001 18.3334C25.4603 18.3334 25.8334 17.9603 25.8334 17.5001C25.8334 17.0398 25.4603 16.6667 25.0001 16.6667C24.5398 16.6667 24.1667 17.0398 24.1667 17.5001C24.1667 17.9603 24.5398 18.3334 25.0001 18.3334Z" fill="#3B065B"/>
</svg>
