<svg width="48" height="42" viewBox="0 0 48 42" fill="none" xmlns="http://www.w3.org/2000/svg">
<path d="M43.6721 7.47626H39.0167L38.5151 4.02448C38.5109 3.99643 38.4937 3.97519 38.4872 3.94819C38.4036 3.59372 38.1438 3.32622 37.8032 3.23795C37.6927 3.20826 37.5758 3.20274 37.4582 3.21354C37.4471 3.21448 37.4371 3.21002 37.4258 3.21131L37.4252 3.21143C37.4248 3.21143 37.4244 3.21131 37.4239 3.21131C37.4235 3.21143 37.4231 3.21166 37.4226 3.21178L34.6798 3.60416L33.9346 1.2995C33.9085 1.21933 33.8595 1.15607 33.8163 1.08822C33.7929 1.05172 33.7803 1.00712 33.7526 0.974487C33.6942 0.905587 33.6197 0.856994 33.5456 0.807579C33.5172 0.788564 33.4957 0.760277 33.4655 0.744431C33.4126 0.716965 33.352 0.710041 33.2947 0.692669C33.2327 0.673654 33.1742 0.645249 33.109 0.639146C33.0735 0.635977 33.0366 0.64971 33.0004 0.650414C32.9125 0.652292 32.8244 0.650062 32.7364 0.67788L32.7248 0.681518C32.7243 0.681636 32.7238 0.681518 32.7233 0.681636C32.7228 0.681753 32.7226 0.682222 32.7221 0.68234L13.3802 6.6517L7.6166 7.47626H4.32786C2.44985 7.47626 0.923035 9.09134 0.923035 11.0783V38.2455C0.923035 40.2305 2.44985 41.8456 4.32786 41.8456H43.6721C45.5501 41.8456 47.0769 40.2305 47.0769 38.2455V11.0783C47.0769 9.09134 45.5501 7.47626 43.6721 7.47626ZM36.7487 5.25176L37.072 7.47626H21.2006L36.7487 5.25176ZM32.3969 2.79439L32.7481 3.88058L25.5322 4.91301L32.3969 2.79439ZM44.1923 38.2455C44.1923 38.6267 43.95 38.961 43.6721 38.961H4.32786C4.04991 38.961 3.80765 38.6267 3.80765 38.2455V11.0783C3.80765 10.6557 4.08184 10.3609 4.32786 10.3609H43.6721C43.9181 10.3609 44.1923 10.6557 44.1923 11.0783V38.2455Z" fill="#3B065B"/>
<path d="M37.2643 26.6209C38.3264 26.6209 39.1874 25.7439 39.1874 24.6621C39.1874 23.5803 38.3264 22.7034 37.2643 22.7034C36.2022 22.7034 35.3412 23.5803 35.3412 24.6621C35.3412 25.7439 36.2022 26.6209 37.2643 26.6209Z" fill="#3B065B"/>
</svg>
